<svg width="436" height="50" viewBox="0 0 436 50" fill="none" xmlns="http://www.w3.org/2000/svg">
<path d="M0.914062 48.4748V1.52576H18.3703C21.5632 1.52576 24.3782 2.11394 26.8148 3.29029C29.2936 4.42463 31.2261 6.10513 32.6126 8.3318C33.999 10.5164 34.6922 13.1843 34.6922 16.3352C34.6922 19.5702 33.9149 22.322 32.3605 24.5907C30.848 26.8594 28.7895 28.5398 26.1846 29.6322L36.9609 48.4748H27.256L15.7235 27.8677L21.2692 31.1446H9.48463V48.4748H0.914062ZM9.48463 23.5824H18.4963C20.0507 23.5824 21.3952 23.2883 22.5295 22.7001C23.6639 22.0699 24.5461 21.2087 25.1763 20.1163C25.8065 19.0239 26.1216 17.7636 26.1216 16.3352C26.1216 14.8648 25.8065 13.6044 25.1763 12.5541C24.5461 11.4617 23.6639 10.6215 22.5295 10.0333C21.3952 9.40312 20.0507 9.08803 18.4963 9.08803H9.48463V23.5824ZM42.578 48.4748V1.52576H51.1486V48.4748H42.578ZM72.1526 48.4748V27.6786L56.3348 1.52576H66.1028L78.2024 21.9439H74.7363L86.7729 1.52576H96.5409L80.7862 27.6156V48.4748H72.1526ZM93.5061 48.4748L109.702 1.52576H120.793L136.989 48.4748H127.662L124.322 38.3918H106.173L102.77 48.4748H93.5061ZM108.631 30.8295H121.865L114.05 7.44954H116.445L108.631 30.8295ZM158.362 49.2311C155.379 49.2311 152.606 48.685 150.043 47.5926C147.523 46.5002 145.338 44.9877 143.489 43.0552C141.683 41.0806 140.359 38.791 139.519 36.1862L146.64 33.0982C147.775 35.787 149.413 37.9087 151.556 39.4631C153.698 40.9756 156.114 41.7318 158.803 41.7318C160.315 41.7318 161.618 41.5008 162.71 41.0386C163.844 40.5345 164.706 39.8623 165.294 39.022C165.924 38.1817 166.239 37.1734 166.239 35.9971C166.239 34.6107 165.819 33.4763 164.979 32.5941C164.181 31.6699 162.962 30.9556 161.324 30.4514L152.312 27.5526C148.657 26.4182 145.905 24.7167 144.057 22.448C142.208 20.1794 141.284 17.5115 141.284 14.4446C141.284 11.7558 141.935 9.38211 143.237 7.3235C144.582 5.26489 146.43 3.6684 148.783 2.53406C151.178 1.35772 153.909 0.769531 156.975 0.769531C159.79 0.769531 162.374 1.27368 164.727 2.28199C167.079 3.24828 169.096 4.61369 170.777 6.37821C172.499 8.10074 173.78 10.1383 174.621 12.491L167.563 15.642C166.638 13.2893 165.252 11.4827 163.403 10.2224C161.555 8.91998 159.412 8.26878 156.975 8.26878C155.547 8.26878 154.287 8.52086 153.194 9.02501C152.102 9.48715 151.241 10.1593 150.61 11.0416C150.022 11.8819 149.728 12.8902 149.728 14.0665C149.728 15.3689 150.148 16.5243 150.989 17.5326C151.829 18.4989 153.11 19.2551 154.833 19.8012L163.466 22.5111C167.206 23.7295 169.999 25.4099 171.848 27.5526C173.738 29.6952 174.684 32.342 174.684 35.4929C174.684 38.1817 173.99 40.5555 172.604 42.6141C171.218 44.6726 169.306 46.2902 166.869 47.4665C164.433 48.6428 161.597 49.2311 158.362 49.2311ZM193.602 48.4748V1.52576H202.173V22.0069H222.15V1.52576H230.783V48.4748H222.15V29.5692H202.173V48.4748H193.602ZM235.976 48.4748L252.172 1.52576H263.264L279.459 48.4748H270.133L266.791 38.3918H248.643L245.24 48.4748H235.976ZM251.101 30.8295H264.335L256.521 7.44954H258.915L251.101 30.8295ZM284.684 48.4748V1.52576H293.255V25.9771L290.923 25.1578L310.9 1.52576H321.676L302.96 23.7084L303.464 17.6586L322.243 48.4748H312.16L299.557 27.8046L293.255 35.3039V48.4748H284.684ZM327.456 48.4748V1.52576H336.027V25.9771L333.695 25.1578L353.672 1.52576H364.448L345.732 23.7084L346.236 17.6586L365.016 48.4748H354.932L342.329 27.8046L336.027 35.3039V48.4748H327.456ZM370.226 48.4748V1.52576H378.797V48.4748H370.226ZM387.828 48.4748V1.52576H396.021L413.603 25.4099H409.696L426.9 1.52576H435.092V48.4748H426.459V11.2937L429.799 12.1129L411.965 35.8711H410.956L393.563 12.1129L396.399 11.2937V48.4748H387.828Z" fill="white"/>
</svg>
