<svg width="352" height="98" viewBox="0 0 352 98" fill="none" xmlns="http://www.w3.org/2000/svg">
<path d="M103.478 86.887C103.477 86.1584 103.74 85.4539 104.219 84.9018C104.71 84.3114 105.236 83.7125 105.805 83.105C106.376 82.4877 106.908 81.8362 107.399 81.1541C107.884 80.4936 108.144 79.6959 108.14 78.878V48.4851C108.155 47.6551 107.894 46.8433 107.399 46.1748C106.901 45.5116 106.369 44.8747 105.805 44.2667C105.236 43.6506 104.71 43.0431 104.219 42.4271C103.752 41.8851 103.49 41.1981 103.478 40.4847C103.469 40.0205 103.593 39.5632 103.835 39.1662C104.078 38.7692 104.429 38.449 104.848 38.2429C105.814 37.7095 106.862 37.3393 107.95 37.1477C109.086 36.9279 110.239 36.8048 111.396 36.7797H113.576C114.719 36.7438 115.859 36.9209 116.937 37.3017C117.708 37.584 118.408 38.0308 118.987 38.6108C119.491 39.1534 119.858 39.8075 120.056 40.5189C120.252 41.2265 120.376 41.9517 120.426 42.6837C121.611 40.6195 123.37 38.9381 125.493 37.8407C127.455 36.8725 129.617 36.3715 131.808 36.3776C133.758 36.3591 135.689 36.7589 137.469 37.5498C139.251 38.3574 140.82 39.5641 142.053 41.0751C143.447 42.8166 144.489 44.8099 145.12 46.9449C145.898 49.616 146.27 52.3876 146.223 55.1678C146.258 58.0317 145.886 60.8862 145.12 63.6473C144.483 65.9749 143.423 68.1672 141.993 70.1161C140.746 71.8113 139.129 73.2038 137.262 74.189C135.441 75.1437 133.41 75.6347 131.352 75.618C129.28 75.6223 127.238 75.1322 125.398 74.189C123.35 73.0918 121.648 71.4544 120.478 69.4572V78.9208C120.473 79.7386 120.733 80.5364 121.219 81.1968C121.709 81.879 122.242 82.5305 122.813 83.1477C123.373 83.7553 123.907 84.3542 124.398 84.9446C124.877 85.4967 125.14 86.2012 125.139 86.9297C125.148 87.3928 125.024 87.8487 124.781 88.2442C124.539 88.6397 124.188 88.9584 123.769 89.163C122.792 89.6996 121.732 90.0726 120.633 90.2668C119.462 90.4861 118.275 90.6092 117.083 90.6348C115.903 90.6348 115.015 90.6348 114.421 90.6348C113.826 90.6348 112.93 90.6348 111.724 90.6348C110.495 90.6088 109.271 90.4858 108.062 90.2668C106.936 90.0807 105.849 89.7075 104.848 89.163C104.423 88.9553 104.067 88.6299 103.824 88.2261C103.581 87.8222 103.461 87.3572 103.478 86.887ZM127.354 67.2839C129.232 67.2839 130.705 66.2571 131.791 64.195C133.962 58.9399 133.962 53.0471 131.791 47.792C130.705 45.7128 129.206 44.6689 127.354 44.6689C126.461 44.7031 125.589 44.9436 124.807 45.3715C124.025 45.7993 123.354 46.4025 122.847 47.1332C121.42 49.0391 120.595 51.3235 120.478 53.696V58.3251C120.6 60.6757 121.425 62.9367 122.847 64.8196C123.354 65.5502 124.025 66.1535 124.807 66.5813C125.589 67.0091 126.461 67.2497 127.354 67.2839Z" fill="white"/>
<path d="M185.907 63.3906C185.525 65.1202 184.849 66.7725 183.908 68.2764C182.981 69.7584 181.793 71.0626 180.401 72.1269C178.954 73.2425 177.329 74.1101 175.594 74.6939C173.674 75.3259 171.662 75.6353 169.64 75.6094C167.162 75.635 164.702 75.1877 162.394 74.2917C160.223 73.4377 158.258 72.1371 156.629 70.4755C154.967 68.7535 153.672 66.7164 152.821 64.4859C151.879 61.9892 151.418 59.3394 151.46 56.6737C151.416 53.814 151.928 50.9727 152.967 48.3054C153.906 45.9034 155.328 43.7168 157.146 41.8794C158.935 40.1064 161.074 38.7197 163.428 37.8065C165.897 36.8424 168.529 36.3573 171.182 36.3776C172.759 36.3853 174.331 36.5429 175.878 36.8482C177.482 37.1551 179.021 37.734 180.427 38.5595C181.807 39.3621 182.985 40.465 183.874 41.7853C184.842 43.3198 185.32 45.1098 185.244 46.9192C185.285 49.042 184.685 51.1283 183.52 52.9088C182.349 54.6579 180.763 56.0946 178.902 57.093C176.839 58.156 174.584 58.8017 172.268 58.9926C169.661 59.2531 167.029 59.0149 164.513 58.2909C165.004 61.1317 165.935 63.1853 167.288 64.4602C167.967 65.1061 168.77 65.6106 169.649 65.9441C170.528 66.2777 171.465 66.4335 172.406 66.4026C174.2 66.4421 175.956 65.8849 177.394 64.8196C178.767 63.8029 179.851 62.4496 180.539 60.8921C180.861 60.0296 181.441 59.2859 182.202 58.7615C182.822 58.424 183.545 58.3206 184.236 58.4706C184.605 58.5474 184.953 58.7067 185.251 58.9365C185.55 59.1663 185.792 59.4605 185.959 59.7969C186.269 60.4814 186.252 61.6793 185.907 63.3906ZM164.246 54.4319C165.942 54.7759 167.702 54.6243 169.312 53.9955C170.392 53.5091 171.322 52.7474 172.009 51.7879C172.567 50.9879 172.932 50.0717 173.078 49.1097C173.177 48.4663 173.24 47.8178 173.267 47.1674C173.354 45.7561 173.018 44.3508 172.302 43.1287C172.072 42.7208 171.741 42.3783 171.34 42.1341C170.938 41.8899 170.481 41.7521 170.01 41.734C169.283 41.7673 168.585 42.0245 168.011 42.4698C167.233 43.0648 166.602 43.8287 166.167 44.7031C165.549 45.9152 165.089 47.2004 164.798 48.5279C164.4 50.346 164.215 52.2037 164.246 54.064V54.4319Z" fill="white"/>
<path d="M192.706 36.7376C193.839 36.7546 194.95 36.4228 195.885 35.7878C196.841 35.1366 197.689 34.3429 198.401 33.4348C199.137 32.5123 199.756 31.5037 200.245 30.4314C200.692 29.4806 201.064 28.4964 201.356 27.488C201.584 26.2202 202.183 25.0474 203.08 24.1167C203.701 23.5722 204.5 23.2684 205.329 23.261C205.699 23.2434 206.069 23.2985 206.418 23.4234C206.767 23.5482 207.088 23.7402 207.362 23.9883C207.625 24.2467 207.83 24.5568 207.965 24.8986C208.1 25.2405 208.162 25.6066 208.146 25.9735V36.7376H213.023C214.548 36.7376 215.315 37.6446 215.315 39.4586C215.315 41.2726 214.548 42.171 213.023 42.171H208.163V64.4181C208.111 65.5204 208.34 66.6179 208.827 67.6097C208.993 67.9761 209.263 68.2863 209.605 68.5022C209.946 68.7181 210.343 68.8302 210.748 68.8247C211.147 68.8126 211.538 68.7133 211.894 68.5338C212.372 68.2791 212.769 67.8968 213.04 67.43C213.377 66.7994 213.926 66.306 214.591 66.0353C214.896 65.9137 215.229 65.8765 215.553 65.9278C215.878 65.979 216.183 66.1167 216.435 66.3262C216.675 66.4887 216.877 66.7016 217.026 66.95C217.175 67.1984 217.267 67.4761 217.296 67.7637C217.319 68.6745 217.061 69.5703 216.555 70.3307C215.65 71.9665 214.273 73.2956 212.601 74.1469C210.765 75.0994 208.718 75.5789 206.647 75.5416C205.207 75.605 203.769 75.381 202.418 74.8827C201.066 74.3845 199.83 73.6222 198.78 72.641C196.781 70.7157 195.782 68.029 195.782 64.6064V42.1625H192.456C192.144 42.1755 191.834 42.1201 191.547 42.0003C191.259 41.8805 191.002 41.6992 190.793 41.4694C190.383 40.8746 190.164 40.1707 190.164 39.45C190.164 38.7294 190.383 38.0255 190.793 37.4307C191.001 37.1998 191.258 37.0172 191.546 36.8959C191.833 36.7747 192.144 36.7177 192.456 36.7291L192.706 36.7376Z" fill="white"/>
<path d="M237.573 42.5339C238.743 40.5368 240.445 38.8993 242.493 37.8021C244.334 36.8589 246.375 36.3688 248.447 36.3731C250.506 36.3564 252.537 36.8474 254.357 37.8021C256.224 38.7873 257.841 40.1798 259.088 41.875C260.508 43.8122 261.562 45.9896 262.198 48.301C262.964 51.0623 263.335 53.9167 263.301 56.7805C263.348 59.5608 262.976 62.3324 262.198 65.0034C261.567 67.1384 260.525 69.1317 259.131 70.8732C257.896 72.3864 256.324 73.5934 254.538 74.3985C252.761 75.1892 250.833 75.5891 248.886 75.5708C246.695 75.5768 244.533 75.0759 242.57 74.1076C240.446 73.0095 238.686 71.3246 237.504 69.256C237.454 69.991 237.33 70.7191 237.134 71.4294C236.936 72.1408 236.569 72.795 236.065 73.3375C235.484 73.937 234.774 74.399 233.989 74.6894C232.911 75.0669 231.771 75.2411 230.628 75.2028H228.449C227.291 75.1778 226.138 75.0547 225.002 74.8349C223.919 74.6427 222.873 74.2848 221.9 73.7739C221.48 73.5788 221.126 73.2658 220.883 72.8735C220.639 72.4813 220.517 72.0269 220.53 71.5663C220.529 70.8403 220.792 70.1384 221.271 69.5897C221.762 68.9993 222.288 68.4004 222.857 67.7928C223.425 67.1734 223.957 66.522 224.451 65.8419C224.936 65.1814 225.196 64.3838 225.192 63.5659V33.0617C225.194 32.2443 224.934 31.4473 224.451 30.7857C223.957 30.1084 223.425 29.4599 222.857 28.8434C222.288 28.2358 221.762 27.6283 221.271 27.0465C220.793 26.4944 220.53 25.7899 220.53 25.0614C220.519 24.6022 220.642 24.1497 220.885 23.7591C221.129 23.3685 221.481 23.0569 221.9 22.8623C222.874 22.3522 223.92 21.9915 225.002 21.7927C226.139 21.5773 227.292 21.4542 228.449 21.4248H230.628C231.95 21.3643 233.267 21.6165 234.471 22.1607C235.334 22.5825 236.064 23.2305 236.582 24.0346C237.051 24.7789 237.345 25.618 237.444 26.4903C237.543 27.3424 237.592 28.1995 237.59 29.0573L237.573 42.5339ZM244.466 67.2795C246.344 67.2795 247.818 66.2355 248.903 64.1563C251.074 58.8982 251.074 53.0029 248.903 47.7448C247.818 45.6912 246.319 44.6644 244.466 44.6644C243.574 44.6986 242.702 44.9392 241.919 45.367C241.137 45.7948 240.466 46.3981 239.96 47.1287C238.532 49.0347 237.707 51.3191 237.59 53.6916V58.3207C237.713 60.6713 238.538 62.9323 239.96 64.8152C240.464 65.5436 241.132 66.1454 241.912 66.5731C242.691 67.0008 243.559 67.2426 244.449 67.2795H244.466Z" fill="white"/>
<path d="M303.013 63.3906C302.631 65.1202 301.955 66.7725 301.014 68.2764C300.085 69.757 298.898 71.061 297.507 72.1269C296.06 73.2425 294.435 74.1101 292.7 74.6939C290.78 75.3259 288.768 75.6354 286.746 75.6094C284.268 75.635 281.808 75.1877 279.5 74.2917C277.329 73.4377 275.364 72.1371 273.735 70.4755C272.073 68.7535 270.778 66.7164 269.927 64.4859C268.982 61.9899 268.518 59.34 268.557 56.6737C268.516 53.8134 269.031 50.9721 270.073 48.3054C271.012 45.9034 272.434 43.7168 274.252 41.8794C276.041 40.1064 278.179 38.7197 280.534 37.8065C283.003 36.8424 285.635 36.3573 288.288 36.3776C289.865 36.3853 291.437 36.5429 292.984 36.8482C294.588 37.1551 296.127 37.734 297.533 38.5595C298.913 39.3621 300.091 40.465 300.98 41.7853C301.948 43.3198 302.426 45.1098 302.35 46.9192C302.391 49.042 301.791 51.1283 300.626 52.9088C299.455 54.6579 297.869 56.0946 296.008 57.093C293.957 58.1836 291.707 58.8584 289.391 59.0781C286.785 59.3387 284.152 59.1005 281.636 58.3765C282.125 61.2287 283.049 63.2851 284.411 64.5458C285.087 65.1793 285.883 65.6739 286.752 66.0013C287.622 66.3288 288.548 66.4825 289.477 66.4539C291.271 66.4934 293.027 65.9362 294.466 64.8709C295.839 63.8563 296.92 62.5022 297.602 60.9435C297.929 60.0817 298.512 59.3388 299.274 58.8129C299.891 58.4759 300.61 58.3726 301.299 58.5219C301.668 58.5981 302.016 58.7572 302.315 58.9871C302.613 59.2169 302.855 59.5115 303.022 59.8482C303.361 60.4985 303.358 61.6793 303.013 63.3906ZM281.352 54.4319C283.048 54.7759 284.808 54.6243 286.418 53.9955C287.498 53.5091 288.428 52.7474 289.115 51.7879C289.672 50.9879 290.038 50.0717 290.184 49.1097C290.283 48.4663 290.346 47.8178 290.373 47.1674C290.46 45.7561 290.124 44.3508 289.408 43.1287C289.178 42.7208 288.847 42.3783 288.446 42.1341C288.044 41.8899 287.587 41.7521 287.116 41.734C286.388 41.7633 285.689 42.0209 285.117 42.4698C284.339 43.0648 283.708 43.8287 283.273 44.7031C282.655 45.9152 282.195 47.2004 281.903 48.5279C281.506 50.346 281.321 52.2037 281.352 54.064V54.4319Z" fill="white"/>
<path d="M334.794 75.2457C333.895 77.7682 332.692 80.1731 331.21 82.4075C329.993 84.2407 328.513 85.8868 326.815 87.2933C325.364 88.4856 323.729 89.4389 321.973 90.117C320.401 90.7111 318.735 91.0211 317.053 91.0326C315.176 91.0834 313.324 90.5866 311.728 89.6036C310.987 89.1151 310.352 88.4853 309.858 87.7509C309.364 87.0165 309.021 86.1921 308.851 85.3253C308.386 83.5394 308.636 81.6442 309.548 80.0374C309.965 79.2653 310.549 78.5947 311.258 78.0739C311.968 77.5531 312.784 77.195 313.65 77.0255C314.952 76.7918 316.293 76.907 317.536 77.3592C318.266 77.6511 318.921 78.1027 319.452 78.6804C319.983 79.2581 320.377 79.947 320.603 80.6962C320.809 81.3214 321.163 81.888 321.637 82.3477C321.923 82.5991 322.289 82.7442 322.671 82.7584C323.532 82.7584 324.584 82.0824 325.738 80.739C327.081 79.0847 328.165 77.2385 328.952 75.2628H328.806C327.26 75.2628 325.751 74.7919 324.483 73.9137C323.215 73.0354 322.249 71.7921 321.714 70.3514L313.71 48.4808C313.425 47.6146 312.945 46.8245 312.306 46.1705C311.668 45.5117 310.987 44.8785 310.272 44.2624C309.557 43.6463 308.876 43.0474 308.239 42.4655C307.659 41.9628 307.205 41.333 306.912 40.6258C306.693 40.237 306.629 39.7812 306.731 39.3476C306.833 38.914 307.094 38.5338 307.463 38.2814C308.331 37.6979 309.316 37.3095 310.35 37.1433C311.555 36.9176 312.777 36.7945 314.003 36.7754C315.287 36.7754 316.243 36.7754 316.889 36.7754C317.536 36.7754 318.552 36.7754 319.81 36.7754C321.087 36.8016 322.36 36.9246 323.619 37.1433C324.843 37.344 326.036 37.7006 327.169 38.2043C327.66 38.4022 328.104 38.7001 328.472 39.0789C328.84 39.4576 329.124 39.9089 329.305 40.4034C329.456 40.7153 329.528 41.0587 329.516 41.4043C329.504 41.7499 329.408 42.0876 329.236 42.3885C328.892 42.9789 328.495 43.5864 328.056 44.2282C327.621 44.8451 327.235 45.4945 326.901 46.1705C326.748 46.5366 326.669 46.9292 326.669 47.3256C326.669 47.7221 326.748 48.1146 326.901 48.4808L332.89 64.7382L338.878 48.4808C339.191 47.7302 339.191 46.8869 338.878 46.1363C338.553 45.4436 338.17 44.7795 337.732 44.1512C337.297 43.536 336.914 42.8864 336.586 42.2088C336.432 41.8684 336.353 41.4995 336.353 41.1264C336.353 40.7533 336.432 40.3844 336.586 40.044C336.894 39.2034 337.481 38.4915 338.249 38.0247C339.007 37.5562 339.845 37.2313 340.722 37.0663C341.574 36.9005 342.439 36.8032 343.307 36.7754C344.168 36.7754 344.814 36.7754 345.306 36.7754C345.797 36.7754 346.391 36.7754 347.227 36.7754C348.047 36.7974 348.863 36.8948 349.665 37.0663C350.368 37.1878 351.015 37.5226 351.518 38.0247C351.743 38.3061 351.883 38.645 351.923 39.0023C351.963 39.3595 351.9 39.7206 351.742 40.044C351.423 40.8508 350.945 41.5867 350.337 42.2088C349.691 42.8677 349.002 43.518 348.261 44.1512C347.52 44.7843 346.822 45.4517 346.159 46.1363C345.506 46.8011 345.012 47.6021 344.711 48.4808L334.794 75.2457Z" fill="white"/>
<path d="M24.6732 51.5181C27.0405 51.5181 28.9596 49.6007 28.9596 47.2356C28.9596 44.8705 27.0405 42.9531 24.6732 42.9531C22.3058 42.9531 20.3867 44.8705 20.3867 47.2356C20.3867 49.6007 22.3058 51.5181 24.6732 51.5181Z" fill="white"/>
<path d="M61.7669 42.9531C60.9196 42.9531 60.0914 43.204 59.3867 43.674C58.6821 44.1441 58.1327 44.8122 57.8079 45.594C57.4831 46.3759 57.3975 47.2363 57.562 48.0667C57.7264 48.8971 58.1335 49.6602 58.7318 50.2596C59.33 50.859 60.0927 51.2678 60.9234 51.4343C61.7541 51.6009 62.6156 51.5178 63.399 51.1955C64.1825 50.8732 64.8528 50.3261 65.3252 49.6234C65.7976 48.9207 66.051 48.0939 66.0533 47.2474C66.0549 46.6841 65.9452 46.1259 65.7304 45.605C65.5157 45.084 65.2002 44.6105 64.802 44.2116C64.4039 43.8127 63.9308 43.4962 63.41 43.2802C62.8892 43.0643 62.3308 42.9531 61.7669 42.9531Z" fill="white"/>
<path d="M71.9813 20.7H65.2023C64.8346 20.6983 64.481 20.5587 64.2113 20.309C63.9416 20.0593 63.7755 19.7176 63.7459 19.3514C63.3005 14.2176 60.9445 9.43717 57.1432 5.95424C53.3419 2.47131 48.3715 0.539063 43.2136 0.539062C38.0558 0.539063 33.0854 2.47131 29.284 5.95424C25.4827 9.43717 23.1267 14.2176 22.6814 19.3514C22.6517 19.7176 22.4856 20.0593 22.216 20.309C21.9463 20.5587 21.5926 20.6983 21.2249 20.7H14.446C10.6156 20.7032 6.94306 22.2248 4.23459 24.9307C1.52613 27.6367 0.00313578 31.3059 0 35.1327L3.59966 74.1127C5.34028 86.9601 13.2145 96.5897 26.95 97.4415C31.3075 97.6513 35.5905 96.2558 38.9864 93.5198C40.1949 92.5805 41.6793 92.0646 43.2105 92.0517C44.7416 92.0389 46.2345 92.5299 47.4586 93.4489C50.9289 96.0401 55.1448 97.4406 59.4772 97.4415C65.6596 97.4073 71.579 94.9385 75.9506 90.5709C80.3223 86.2033 82.7934 80.2893 82.8276 74.1127L86.4272 35.1327C86.4241 31.3059 84.9011 27.6367 82.1926 24.9307C79.4842 22.2248 75.8116 20.7032 71.9813 20.7ZM43.2136 9.20716C45.9966 9.20982 48.6912 10.1845 50.8308 11.9625C52.9705 13.7404 54.4206 16.2098 54.9303 18.9433C54.9684 19.1618 54.9581 19.386 54.9 19.6C54.8418 19.8141 54.7374 20.0128 54.5939 20.182C54.4505 20.3513 54.2715 20.487 54.0698 20.5796C53.8681 20.6722 53.6485 20.7194 53.4265 20.7178H32.9949C32.773 20.7195 32.5536 20.6724 32.352 20.5798C32.1505 20.4872 31.9719 20.3513 31.8289 20.1819C31.6859 20.0125 31.582 19.8137 31.5246 19.5996C31.4673 19.3855 31.4578 19.1614 31.497 18.9433C32.0066 16.2098 33.4568 13.7404 35.5964 11.9625C37.7361 10.1845 40.4306 9.20982 43.2136 9.20716ZM44.3267 72.7285C44.1817 72.8766 44.0085 72.9943 43.8174 73.0746C43.6262 73.1549 43.421 73.1963 43.2136 73.1963C43.0063 73.1963 42.801 73.1549 42.6099 73.0746C42.4187 72.9943 42.2456 72.8766 42.1006 72.7285V72.6812L35.1795 65.3643C35.1549 65.3339 35.1271 65.3061 35.0966 65.2815C34.7293 64.9204 34.4585 64.473 34.3092 63.9802C34.1454 63.4334 34.132 62.8526 34.2706 62.2988C34.4091 61.7451 34.6945 61.2389 35.0966 60.8334C35.4238 60.5056 35.8198 60.2543 36.2559 60.0978C36.6921 59.9413 37.1575 59.8835 37.6188 59.9284C38.3844 60.0136 39.0963 60.363 39.6317 60.9162L42.1716 63.4597C42.448 63.7357 42.8228 63.8907 43.2136 63.8907C43.6044 63.8907 43.9792 63.7357 44.2556 63.4597L46.7955 60.9162C47.331 60.363 48.0429 60.0136 48.8085 59.9284C49.271 59.8862 49.7372 59.947 50.1734 60.1066C50.6095 60.2661 51.0048 60.5205 51.3306 60.8512C51.7296 61.2513 52.0142 61.7509 52.1547 62.298C52.2953 62.8451 52.2867 63.4198 52.1299 63.9625C51.9792 64.4691 51.7022 64.9291 51.3247 65.2993L51.2477 65.3821L44.3267 72.6812V72.7285ZM75.1132 74.1127C74.8349 81.1219 70.3768 89.3024 59.489 89.7224C53.3673 89.959 48.2401 85.2802 47.2632 79.4125C47.2245 79.1779 47.2401 78.9375 47.3089 78.7099C47.3777 78.4823 47.4977 78.2734 47.6599 78.0994L55.6526 69.6468C56.8093 68.4724 57.6369 67.0149 58.0526 65.4204C58.4682 63.8259 58.4572 62.1503 58.0208 60.5613C57.8276 59.7999 57.5286 59.0692 57.1327 58.3905C56.3073 56.9526 55.1166 55.7579 53.681 54.927C52.2453 54.0961 50.6156 53.6585 48.9565 53.6585C47.1689 53.6527 45.4175 54.162 43.9122 55.1254C43.6541 55.2903 43.3542 55.378 43.0479 55.378C42.7415 55.378 42.4415 55.2903 42.1835 55.1254C40.1179 53.8149 37.6231 53.3588 35.2269 53.8537C34.0634 54.079 32.9565 54.5334 31.9706 55.1905C30.8059 55.9527 29.8252 56.9638 29.0993 58.1508C28.3734 59.3378 27.9205 60.6711 27.7732 62.0543C27.6259 63.4376 27.7879 64.8362 28.2476 66.1492C28.7073 67.4622 29.4532 68.6569 30.4313 69.6468L38.72 78.407C38.8871 78.5837 39.0097 78.7977 39.0776 79.0312C39.1456 79.2647 39.1569 79.5109 39.1107 79.7497C37.9799 85.4754 32.9357 90.2784 26.95 89.7224C19.058 88.9889 12.4567 82.0329 11.3259 74.1127L7.72623 35.1327C7.7278 33.3526 8.43628 31.6459 9.69614 30.3872C10.956 29.1285 12.6643 28.4207 14.446 28.4191H71.9813C73.763 28.4207 75.4713 29.1285 76.7311 30.3872C77.991 31.6459 78.6994 33.3526 78.701 35.1327L75.1132 74.1127Z" fill="white"/>
</svg>
