<svg width="395" height="70" viewBox="0 0 395 70" fill="none" xmlns="http://www.w3.org/2000/svg">
<g clip-path="url(#clip0_160_238)">
<path d="M244.679 7.64062H231.543V62.0933H244.679V7.64062Z" fill="white"/>
<path d="M244.679 -11.5762H231.543V1.55992H244.679V-11.5762Z" fill="white"/>
<path d="M289.901 7.64203V10.0385C289.901 11.9911 289.369 13.8994 288.304 15.5414L268.688 46.7397C268.067 47.716 266.558 47.2722 266.558 46.1184V7.77517H253.422V49.1805C253.422 56.5917 259.413 62.5829 266.824 62.5829C271.44 62.5829 275.744 60.2308 278.185 56.2811L300.197 21.2219C302.017 18.3373 302.993 14.9645 302.993 11.503V7.59766H289.901V7.64203Z" fill="white"/>
<path d="M166.044 7.64062V48.8684C166.044 62.4039 148.337 67.5075 141.103 56.0578L137.376 50.111L133.648 56.0578C126.459 67.5075 108.707 62.4039 108.707 48.8684V7.64062H121.843V46.117C121.843 47.2708 123.352 47.7146 123.973 46.7383L132.317 33.4247C134.669 29.6968 140.083 29.6968 142.435 33.4247L150.778 46.7383C151.399 47.7146 152.908 47.2708 152.908 46.117V7.64062H166.044Z" fill="white"/>
<path d="M376.666 28.721C376.666 24.3719 380.172 20.866 384.521 20.866H393.486V7.68555H384.521C372.894 7.68555 363.441 17.1382 363.441 28.7654V62.1382H376.666V28.721Z" fill="white"/>
<path d="M346.573 45.3153H346.484C345.152 47.7118 342.578 49.3982 339.605 49.3982H327.578C323.718 49.3982 321.01 47.3567 320.078 44.5609L341.868 39.768C349.235 38.1703 354.605 31.5135 354.605 23.9692C354.605 19.6201 352.919 15.5816 349.857 12.5195C346.794 9.45733 342.712 7.77094 338.407 7.77094L327.578 7.72656C315.951 7.72656 306.543 17.1348 306.543 28.7621V42.1644C306.543 53.7916 315.951 62.5342 327.578 62.5342H339.605C345.951 62.5342 351.632 59.694 355.493 55.2561L346.573 45.3153ZM319.723 28.7177C319.723 24.3686 323.274 20.8183 327.623 20.8183L338.451 20.7739C339.561 20.7739 340.315 21.3508 340.67 21.7058C341.025 22.0609 341.602 22.7709 341.602 23.9248C341.602 25.3893 340.581 26.6763 339.161 26.9869L319.768 31.2916L319.723 28.7177Z" fill="white"/>
<path d="M202.388 7.68555H189.696C183.35 7.68555 177.67 10.5258 173.809 14.9637L182.773 24.9489H182.862C184.193 22.5524 186.767 20.866 189.741 20.866H201.767C205.628 20.866 208.335 22.9074 209.267 25.7033L187.477 30.4962C180.11 32.0938 174.741 38.7506 174.741 46.295C174.741 50.6441 176.427 54.6826 179.489 57.7447C182.551 60.8068 186.634 62.4932 190.939 62.4932L198.261 62.5376C200.968 62.5376 204.164 61.5613 206.516 59.298C207.359 58.4548 208.513 58.011 209.667 58.011V62.5376H222.803V28.0554C222.758 16.8276 213.616 7.68555 202.388 7.68555ZM190.894 49.4459C189.785 49.4459 189.03 48.869 188.675 48.5139C188.32 48.1589 187.744 47.4489 187.744 46.295C187.744 44.8305 188.764 43.5435 190.184 43.2329L209.578 38.9281V49.3571L190.894 49.4459Z" fill="white"/>
<path d="M71.6062 1.56055V3.69073C71.6062 5.51025 71.1624 7.2854 70.1861 8.83865L44.4908 50.0665C43.2038 51.3535 41.0293 50.4215 41.0293 48.6464V37.1966L55.8961 13.3653C57.405 10.9245 58.0263 8.21735 58.0263 5.33274V1.56055H37.124V3.7351C37.124 5.55463 36.5914 7.37416 35.6151 8.92741L10.0086 49.9333C8.72159 51.2203 6.54704 50.2884 6.54704 48.5132V37.4185L21.3251 13.3209C22.834 10.8801 23.5885 8.08422 23.5885 5.24398V1.60492H2.73047V55.9245C2.73047 61.96 7.07958 67.241 13.0707 68.0842C17.8192 68.7499 22.3902 66.5753 24.9198 62.67L37.1683 43.5428V56.1907C37.1683 62.8475 42.5382 68.2174 49.195 68.2174H49.2393C53.3222 68.2174 57.3606 66.0872 59.5352 62.67L90.2896 13.4097C91.8429 10.9245 92.5086 8.57238 92.5086 5.64339V1.6493H71.6062V1.56055Z" fill="white"/>
</g>
<defs>
<clipPath id="clip0_160_238">
<rect width="393.956" height="69.2308" fill="white" transform="translate(0.960938 0.384766)"/>
</clipPath>
</defs>
</svg>
