<svg width="433" height="104" viewBox="0 0 433 104" fill="none" xmlns="http://www.w3.org/2000/svg">
<g clip-path="url(#clip0_160_74)">
<mask id="mask0_160_74" style="mask-type:luminance" maskUnits="userSpaceOnUse" x="128" y="-85" width="304" height="172">
<path d="M431.517 -84.291H128.312V86.6138H431.517V-84.291Z" fill="white"/>
</mask>
<g mask="url(#mask0_160_74)">
<path d="M171.282 50.5522C171.489 52.3436 171.827 55.0955 173.878 55.7445C174.91 56.07 175.988 56.2278 177.071 56.2118C177.331 56.2118 177.486 56.2118 177.486 56.4455C177.486 56.6791 177.019 56.8868 176.448 56.8868C175.358 56.8868 170.035 56.7311 168.218 56.6013C167.076 56.6013 166.842 56.3416 166.842 56.108C166.842 55.8743 166.842 55.7964 167.18 55.7445C167.517 55.6926 167.465 54.8618 167.361 53.9791L164.999 28.5628H164.869L152.849 54.2128C151.836 56.3676 151.681 56.8089 151.239 56.8089C150.798 56.8089 150.642 56.3157 149.708 54.5503C148.435 52.1359 144.178 43.6205 143.944 43.1272C143.503 42.2186 137.973 30.4061 137.428 29.0561H137.246L135.273 51.9282C135.273 52.733 135.273 53.6157 135.273 54.5243C135.278 54.8867 135.407 55.2364 135.638 55.5151C135.87 55.7939 136.19 55.9848 136.545 56.0561C137.157 56.2106 137.784 56.2976 138.414 56.3157C138.622 56.3157 138.804 56.3157 138.804 56.5493C138.804 56.783 138.518 56.9907 137.921 56.9907C136.104 56.9907 133.741 56.8349 133.352 56.8349C132.962 56.8349 130.548 56.9907 129.198 56.9907C128.705 56.9907 128.367 56.9907 128.367 56.5493C128.367 56.108 128.601 56.3157 128.86 56.3157C129.358 56.3243 129.855 56.272 130.34 56.1599C131.976 55.8484 132.106 53.9272 132.313 52.058L135.818 19.8397C135.818 19.3205 136.052 18.957 136.337 18.957C136.623 18.957 136.831 19.1647 137.09 19.7099L152.174 50.708L166.66 19.7618C166.868 19.3205 167.05 18.957 167.387 18.957C167.725 18.957 167.881 19.3724 167.984 20.307L171.282 50.5522Z" fill="white"/>
<path d="M207.476 40.609C207.709 40.609 207.709 40.4532 207.683 40.2715L202.984 26.9532C202.751 26.2003 202.491 26.2003 202.257 26.9532L197.922 40.3234C197.922 40.557 197.922 40.6609 198.052 40.6609L207.476 40.609ZM202.283 20.8782C202.854 19.2686 203.062 18.957 203.348 18.957C203.633 18.957 203.841 19.2166 204.438 20.7484C205.035 22.2801 213.005 42.9195 215.991 50.4484C217.782 54.8359 219.21 55.6407 220.249 55.9263C220.884 56.1392 221.551 56.2445 222.222 56.2378C222.507 56.2378 222.715 56.2378 222.715 56.5234C222.715 56.809 222.274 56.9128 221.728 56.9128C221.183 56.9128 217.393 56.9128 213.94 56.9128C213.005 56.9128 212.46 56.9128 212.46 56.5753C212.46 56.2378 212.46 56.2897 212.798 56.2378C213.135 56.1859 213.395 55.6926 213.083 54.9138L208.514 42.7897C208.485 42.6962 208.426 42.6149 208.347 42.5585C208.267 42.5021 208.17 42.4739 208.073 42.4782H197.506C197.394 42.4843 197.286 42.5249 197.198 42.5947C197.11 42.6644 197.045 42.7597 197.013 42.8676L194.079 51.4868C193.669 52.5496 193.432 53.6717 193.378 54.8099C193.378 55.7965 194.417 56.2378 195.248 56.2378H195.819C196.156 56.2378 196.312 56.2378 196.312 56.5234C196.312 56.809 196.027 56.9128 195.585 56.9128C194.391 56.9128 192.262 56.757 191.743 56.757C191.224 56.757 188.472 56.9128 186.161 56.9128C185.512 56.9128 185.227 56.9128 185.227 56.5234C185.227 56.134 185.434 56.2378 185.668 56.2378H187.096C189.354 55.9263 190.341 54.057 191.25 51.5907L202.283 20.8782Z" fill="white"/>
<path d="M244.387 50.9143C247.243 44.2941 253.863 27.1075 254.928 23.5508C255.164 22.9522 255.313 22.3226 255.369 21.6816C255.384 21.4518 255.333 21.2226 255.223 21.0204C255.112 20.8183 254.947 20.6515 254.746 20.5393C254.155 20.3775 253.542 20.3075 252.929 20.3316C252.617 20.3316 252.384 20.3316 252.384 20.046C252.384 19.7604 252.669 19.6566 253.448 19.6566C255.421 19.6566 257.706 19.8123 258.303 19.8123C258.9 19.8123 260.717 19.5527 262.093 19.5527C262.612 19.5527 262.924 19.5527 262.924 19.8902C262.924 20.2277 262.716 20.2277 262.327 20.2277C261.499 20.2025 260.681 20.4094 259.964 20.8249C259.315 21.2662 258.588 22.1229 257.368 25.472C256.823 26.8479 254.357 32.7672 251.838 38.8162C248.827 46.0075 246.646 51.3297 245.478 53.7441C244.102 56.7037 243.894 57.5085 243.401 57.5085C242.908 57.5085 242.57 56.8075 241.636 54.445L229.563 24.3297C228.473 21.5777 227.746 21.0325 226.007 20.5393C225.395 20.3891 224.767 20.3193 224.137 20.3316C223.852 20.3316 223.748 20.3316 223.748 19.9941C223.748 19.6566 224.241 19.6566 225.02 19.6566C227.383 19.6566 230.212 19.8123 230.784 19.8123C231.355 19.8123 233.38 19.6566 235.379 19.6566C236.262 19.6566 236.703 19.6566 236.703 19.9941C236.703 20.3316 236.547 20.3316 236.21 20.3316C235.576 20.3083 234.943 20.3961 234.34 20.5912C234.143 20.6671 233.974 20.8031 233.857 20.98C233.741 21.157 233.683 21.3661 233.691 21.5777C233.979 22.9933 234.432 24.3701 235.041 25.6797L244.387 50.9143Z" fill="white"/>
<path d="M282.091 38.2475C282.086 38.3683 282.119 38.4876 282.184 38.5895C282.249 38.6915 282.343 38.7714 282.454 38.8186C284.112 39.438 285.879 39.7119 287.647 39.6234C288.942 39.6952 290.228 39.3691 291.333 38.6888C292.401 37.7499 293.232 36.5707 293.755 35.2482C294.279 33.9258 294.481 32.4979 294.345 31.0821C294.345 24.9292 291.099 21.2427 285.829 21.2427C284.723 21.2118 283.617 21.3076 282.532 21.5283C282.407 21.5681 282.298 21.6483 282.223 21.7563C282.148 21.8642 282.111 21.994 282.117 22.1254L282.091 38.2475ZM278.171 33.9638C278.171 26.1754 278.171 24.8773 278.171 23.2936C278.171 21.71 277.677 20.8273 276.042 20.4898C275.489 20.4363 274.933 20.4363 274.38 20.4898C274.173 20.4898 273.965 20.4898 273.965 20.1783C273.965 19.8667 274.224 19.7888 274.77 19.7888C276.976 19.7888 280.092 19.9446 280.325 19.9446C280.559 19.9446 284.505 19.5552 286.037 19.5552C289.199 19.3159 292.358 20.0691 295.072 21.71C296.104 22.5066 296.945 23.5237 297.533 24.6871C298.121 25.8505 298.442 27.1306 298.473 28.434C298.473 32.0686 296.941 35.7292 292.501 39.8052C296.551 44.9975 299.9 49.359 302.756 52.4225C304.292 54.2689 306.421 55.5258 308.779 55.9792C309.414 56.0867 310.057 56.1388 310.7 56.135C310.934 56.135 311.142 56.135 311.142 56.4206C311.142 56.7061 310.83 56.81 309.948 56.81H306.443C304.659 56.9704 302.866 56.6475 301.25 55.8754C298.56 53.9461 296.261 51.5233 294.474 48.736C292.398 46.1398 290.087 42.7129 289.1 41.4408C289.023 41.3452 288.923 41.2695 288.81 41.2198C288.697 41.1702 288.574 41.148 288.451 41.1552H282.402C282.143 41.1552 282.039 41.311 282.039 41.5446V42.7388C282.039 47.4638 282.039 51.3581 282.299 53.435C282.454 54.8629 282.74 56.0311 284.22 56.0311C284.951 56.14 285.688 56.2093 286.426 56.2388C286.738 56.2388 286.842 56.2388 286.842 56.5244C286.842 56.81 286.582 56.9138 286.037 56.9138C283.441 56.9138 280.222 56.7581 279.988 56.7581C279.754 56.7581 276.821 56.9138 275.341 56.9138C274.796 56.9138 274.562 56.9138 274.562 56.5244C274.562 56.135 274.562 56.2388 274.951 56.2388C275.45 56.2206 275.946 56.151 276.431 56.0311C277.418 55.8234 277.651 54.759 277.859 53.435C278.119 51.3581 278.119 47.4638 278.119 42.7388L278.171 33.9638Z" fill="white"/>
<path d="M327.153 38.2463C327.15 38.3636 327.18 38.4795 327.24 38.5805C327.299 38.6816 327.386 38.7637 327.491 38.8174C329.149 39.4369 330.916 39.7107 332.683 39.6223C333.986 39.6911 335.28 39.3654 336.396 38.6876C337.459 37.7448 338.286 36.5649 338.809 35.2435C339.332 33.9221 339.537 32.4962 339.407 31.0809C339.407 24.928 336.136 21.2415 330.866 21.2415C329.759 21.2107 328.653 21.3065 327.569 21.5271C327.446 21.5677 327.34 21.6489 327.269 21.7574C327.199 21.8659 327.167 21.9952 327.179 22.1242L327.153 38.2463ZM323.207 33.9626C323.207 26.1742 323.207 24.8761 323.207 23.2924C323.207 21.7088 322.714 20.8261 321.078 20.4886C320.526 20.4351 319.969 20.4351 319.417 20.4886C319.209 20.4886 319.027 20.4886 319.027 20.1771C319.027 19.8655 319.261 19.7876 319.806 19.7876C322.013 19.7876 324.999 19.9434 325.388 19.9434C325.777 19.9434 329.568 19.554 331.099 19.554C334.253 19.3184 337.402 20.0716 340.108 21.7088C341.144 22.5015 341.988 23.5179 342.577 24.6821C343.166 25.8463 343.485 27.1284 343.509 28.4328C343.509 32.0674 341.977 35.728 337.538 39.804C341.588 44.9963 344.937 49.3578 347.923 52.4213C349.459 54.2677 351.587 55.5246 353.946 55.978C354.58 56.0855 355.223 56.1376 355.867 56.1338C356.1 56.1338 356.308 56.1338 356.308 56.4194C356.308 56.705 356.023 56.8088 355.114 56.8088H351.583C349.8 56.9666 348.007 56.6439 346.391 55.8742C343.737 53.9017 341.482 51.4439 339.745 48.6309C337.668 46.0348 335.357 42.6078 334.371 41.3357C334.298 41.2405 334.204 41.1647 334.095 41.1149C333.986 41.0651 333.867 41.0428 333.748 41.0501H327.673C327.439 41.0501 327.335 41.2059 327.335 41.4396V42.6338C327.335 47.3588 327.335 51.253 327.569 53.3299C327.724 54.7578 328.01 55.9261 329.49 55.9261C330.23 56.0351 330.975 56.1044 331.723 56.1338C332.008 56.1338 332.112 56.1338 332.112 56.4194C332.112 56.705 331.852 56.8088 331.333 56.8088C328.737 56.8088 325.492 56.653 325.258 56.653C325.024 56.653 322.091 56.8088 320.637 56.8088C320.092 56.8088 319.832 56.8088 319.832 56.4194C319.832 56.0299 319.832 56.1338 320.222 56.1338C320.721 56.1156 321.217 56.046 321.701 55.9261C322.688 55.7184 322.948 54.654 323.129 53.3299C323.389 51.253 323.389 47.3588 323.389 42.6338L323.207 33.9626Z" fill="white"/>
<path d="M372.352 42.6325C372.352 47.3575 372.352 51.2518 372.585 53.3287C372.741 54.7566 373.027 55.9248 374.507 55.9248C375.247 56.0338 375.992 56.1032 376.739 56.1325C377.025 56.1325 377.129 56.1325 377.129 56.4181C377.129 56.7037 376.869 56.8075 376.324 56.8075C373.728 56.8075 370.509 56.8075 370.275 56.8075C370.041 56.8075 366.926 56.8075 365.446 56.8075C364.901 56.8075 364.641 56.8075 364.641 56.4181C364.641 56.0287 364.641 56.1325 365.057 56.1325C365.556 56.1143 366.052 56.0447 366.536 55.9248C367.523 55.7172 367.757 54.6527 367.964 53.3287C368.198 51.2518 368.198 47.3575 368.198 42.6325V33.9614C368.198 26.1729 368.198 24.8748 368.198 23.2912C368.198 21.7075 367.627 20.695 366.536 20.5393C366.036 20.4136 365.521 20.3525 365.005 20.3575C364.797 20.3575 364.615 20.3575 364.615 20.046C364.615 19.7345 364.849 19.6566 365.394 19.6566C367.03 19.6566 370.119 19.8123 370.379 19.8123C370.638 19.8123 373.676 19.5527 375.156 19.5527C375.701 19.5527 375.934 19.5527 375.934 19.9422C375.934 20.3316 375.753 20.2537 375.545 20.2537C375.139 20.2139 374.731 20.2139 374.325 20.2537C372.975 20.5133 372.585 21.3441 372.482 23.0575C372.378 24.771 372.482 26.0172 372.482 33.7277L372.352 42.6325Z" fill="white"/>
<path d="M411.422 55.7431C402.569 55.7431 395.663 48.344 395.663 36.8431C395.663 26.069 401.816 20.6431 410.046 20.6431C417.834 20.6431 425.026 27.0036 425.026 38.8161C425.026 53.1729 415.861 55.7431 411.422 55.7431ZM431.153 59.2219L421.028 54.0296C423.713 52.1789 425.912 49.706 427.435 46.8219C428.959 43.9377 429.762 40.7279 429.777 37.4661C429.777 26.0431 421.495 18.9815 410.383 18.9815C407.832 18.9362 405.297 19.4033 402.929 20.355C400.561 21.3067 398.408 22.7237 396.597 24.5223C394.786 26.3208 393.355 28.4643 392.387 30.8258C391.42 33.1874 390.936 35.719 390.964 38.2709C390.964 47.1238 396.598 57.6383 410.253 57.6383C412.938 57.6202 415.59 57.0456 418.042 55.9508L424.273 59.4036H431.516C431.388 59.3589 431.265 59.2978 431.153 59.2219Z" fill="white"/>
</g>
<mask id="mask1_160_74" style="mask-type:luminance" maskUnits="userSpaceOnUse" x="128" y="-85" width="304" height="172">
<path d="M431.517 -84.291H128.312V86.6138H431.517V-84.291Z" fill="white"/>
</mask>
<g mask="url(#mask1_160_74)">
<path d="M135.741 84.894C135.079 84.3085 134.557 83.5829 134.211 82.7701C133.865 81.9572 133.705 81.0776 133.741 80.195C133.77 78.5527 134.441 76.9871 135.611 75.8335C136.287 75.2218 137.079 74.7507 137.939 74.4476C138.799 74.1445 139.711 74.0155 140.621 74.0681C141.421 74.0698 142.219 74.1305 143.01 74.2498C143.565 74.3738 144.129 74.4519 144.697 74.4835C144.853 74.4835 144.905 74.4835 144.905 74.6652C144.905 74.8469 144.905 74.9767 144.905 75.5479C144.905 76.119 144.905 76.9758 144.905 77.1835C144.905 77.3911 144.905 77.521 144.697 77.521C144.49 77.521 144.697 77.521 144.697 77.1835C144.677 76.8898 144.595 76.6036 144.457 76.344C144.318 76.0844 144.126 75.8573 143.892 75.6777C142.932 75.0455 141.795 74.7363 140.647 74.795C139.312 74.6738 137.982 75.0739 136.935 75.9113C136.398 76.4527 135.988 77.1055 135.732 77.8234C135.476 78.5413 135.382 79.3066 135.455 80.0652C135.458 80.8277 135.612 81.582 135.908 82.2848C136.204 82.9876 136.635 83.625 137.178 84.1606C137.721 84.6961 138.364 85.1191 139.071 85.4054C139.778 85.6917 140.534 85.8355 141.296 85.8286C141.757 85.8827 142.225 85.844 142.67 85.7147C143.116 85.5854 143.532 85.3681 143.892 85.0758C144.217 84.6962 144.44 84.2408 144.541 83.7517C144.541 83.57 144.541 83.5181 144.697 83.5181C144.853 83.5181 144.853 83.5181 144.853 83.7517C144.758 84.433 144.628 85.1089 144.464 85.7767C144.464 86.0883 144.464 86.1402 144.048 86.244C143.153 86.4957 142.226 86.618 141.296 86.6075C139.336 86.7411 137.398 86.1291 135.87 84.894" fill="white"/>
<path d="M154.843 85.9589C156.323 85.9589 159.309 85.1541 159.309 80.5589C159.396 79.8396 159.331 79.1099 159.12 78.4169C158.908 77.724 158.553 77.083 158.079 76.5352C157.604 75.9875 157.021 75.5451 156.365 75.2365C155.709 74.9279 154.996 74.76 154.272 74.7435C153.603 74.7144 152.935 74.8327 152.317 75.0901C151.699 75.3475 151.144 75.7377 150.694 76.2332C150.243 76.7286 149.906 77.317 149.708 77.9569C149.51 78.5968 149.455 79.2724 149.547 79.9358C149.456 80.679 149.522 81.433 149.74 82.1493C149.957 82.8657 150.322 83.5286 150.811 84.0957C151.3 84.6628 151.902 85.1214 152.578 85.4423C153.255 85.7631 153.991 85.9391 154.739 85.9589M154.48 74.0685C155.309 73.9884 156.146 74.0837 156.937 74.348C157.727 74.6123 158.453 75.0399 159.068 75.603C159.682 76.166 160.171 76.852 160.504 77.6163C160.836 78.3807 161.004 79.2063 160.996 80.0397C161.022 80.9227 160.865 81.8016 160.535 82.6208C160.204 83.4401 159.707 84.1818 159.075 84.7991C158.443 85.4164 157.69 85.8959 156.863 86.2072C156.037 86.5186 155.154 86.655 154.272 86.608C153.431 86.651 152.589 86.5201 151.801 86.2233C151.012 85.9265 150.293 85.4702 149.689 84.883C149.085 84.2958 148.608 83.5903 148.289 82.8105C147.97 82.0308 147.815 81.1936 147.834 80.3512C147.836 79.4958 148.012 78.6497 148.352 77.8645C148.691 77.0793 149.187 76.3713 149.808 75.7837C150.43 75.196 151.165 74.7409 151.968 74.4461C152.771 74.1512 153.625 74.0228 154.48 74.0685Z" fill="white"/>
<path d="M166.971 80.3268C166.971 80.3268 166.971 80.4566 166.971 80.5345C167.56 80.7129 168.174 80.7918 168.789 80.7681C169.215 80.7992 169.64 80.6995 170.009 80.4826C170.36 80.1876 170.634 79.8108 170.806 79.3853C170.978 78.9598 171.043 78.4986 170.995 78.0422C171.053 77.644 171.022 77.238 170.905 76.8533C170.787 76.4685 170.586 76.1145 170.316 75.8167C170.045 75.5189 169.712 75.2847 169.34 75.1308C168.969 74.9769 168.567 74.9073 168.165 74.9268C167.768 74.8862 167.368 74.8862 166.971 74.9268C166.955 74.9544 166.947 74.9858 166.947 75.0177C166.947 75.0496 166.955 75.0809 166.971 75.1085V80.3268ZM165.569 78.9768C165.569 76.3806 165.569 76.0431 165.569 75.5499C165.569 75.0566 165.44 74.7451 164.894 74.6672H164.349C164.325 74.6808 164.299 74.688 164.271 74.688C164.244 74.688 164.217 74.6808 164.193 74.6672C164.193 74.6672 164.193 74.5114 164.479 74.5114H166.426H168.477C169.545 74.4362 170.611 74.6802 171.54 75.2124C171.884 75.465 172.166 75.7928 172.364 76.1707C172.562 76.5486 172.671 76.9667 172.683 77.3931C172.647 78.1138 172.446 78.8165 172.094 79.4468C171.743 80.0771 171.252 80.618 170.658 81.0277C172.008 82.6893 173.254 84.1431 174.111 85.1297C174.565 85.7057 175.209 86.1014 175.928 86.246H176.525C176.545 86.2346 176.567 86.2286 176.59 86.2286C176.613 86.2286 176.635 86.2346 176.655 86.246C176.655 86.246 176.655 86.246 176.265 86.246H175.253C174.648 86.2946 174.04 86.1873 173.488 85.9345C172.596 85.3026 171.83 84.5102 171.229 83.5979C170.554 82.7152 169.827 81.7027 169.464 81.2614C169.1 80.8201 169.464 81.2614 169.23 81.2614H167.153V81.8585C167.153 83.3902 167.153 84.6104 167.153 85.2595C167.153 85.9085 167.309 86.0383 167.802 86.1162H168.555C168.555 86.1162 168.555 86.1162 168.269 86.1162H166.27H164.635C164.453 86.1162 164.375 86.1162 164.375 86.1162H164.868C165.206 86.1162 165.232 85.7268 165.31 85.2595C165.377 84.1182 165.377 82.9739 165.31 81.8326L165.569 78.9768Z" fill="white"/>
<path d="M179.251 78.9757C179.251 76.3795 179.251 76.042 179.251 75.5487C179.251 75.0555 179.121 74.7439 178.576 74.666H178.005C177.984 74.6754 177.962 74.6802 177.94 74.6802C177.918 74.6802 177.895 74.6754 177.875 74.666C177.875 74.666 177.875 74.5103 178.135 74.5103H180.056H182.392C183.518 74.3915 184.645 74.7176 185.534 75.4189C185.798 75.664 186.008 75.9613 186.151 76.2921C186.294 76.6228 186.367 76.9797 186.364 77.3401C186.36 77.8772 186.244 78.4075 186.022 78.8968C185.8 79.386 185.478 79.8234 185.077 80.1805C184.676 80.5377 184.204 80.8068 183.693 80.9704C183.181 81.134 182.641 81.1886 182.107 81.1305H181.639C181.639 81.1305 181.458 81.1305 181.458 80.9747C181.458 80.8189 181.458 80.8189 181.899 80.8189C182.271 80.8582 182.647 80.8213 183.004 80.7105C183.361 80.5996 183.692 80.4171 183.976 80.1742C184.26 79.9312 184.492 79.6329 184.657 79.2974C184.822 78.9619 184.917 78.5962 184.937 78.2228C184.956 77.7776 184.884 77.3331 184.723 76.9175C184.562 76.5019 184.316 76.1242 184.002 75.8084C183.712 75.529 183.364 75.3167 182.982 75.1867C182.601 75.0566 182.196 75.0118 181.795 75.0555C181.484 75.0368 181.172 75.0368 180.861 75.0555C180.861 75.0555 180.731 75.0555 180.731 75.3411V81.8574C180.731 83.3891 180.731 84.6353 180.731 85.2843C180.731 85.9334 180.887 86.0632 181.38 86.1411H182.133C182.152 86.1297 182.175 86.1237 182.198 86.1237C182.22 86.1237 182.243 86.1297 182.263 86.1411C182.263 86.1411 182.262 86.1411 182.003 86.1411H179.926H178.316C178.135 86.1411 178.031 86.1411 178.031 86.1411C178.054 86.1274 178.081 86.1202 178.109 86.1202C178.136 86.1202 178.163 86.1274 178.187 86.1411H178.68C178.991 86.1411 179.043 85.7516 179.121 85.2843C179.199 84.817 179.121 83.3891 179.121 81.8574L179.251 78.9757Z" fill="white"/>
<path d="M196.389 85.9589C197.869 85.9589 200.828 85.1541 200.828 80.5589C200.915 79.8417 200.852 79.1142 200.641 78.423C200.431 77.7317 200.079 77.092 199.607 76.5446C199.136 75.9973 198.555 75.5544 197.902 75.2442C197.25 74.9341 196.54 74.7636 195.818 74.7435C195.146 74.7104 194.476 74.8258 193.854 75.0815C193.233 75.3372 192.675 75.7268 192.221 76.2227C191.768 76.7186 191.429 77.3085 191.229 77.9503C191.03 78.5921 190.974 79.2701 191.067 79.9358C190.98 80.6783 191.049 81.4307 191.268 82.1453C191.487 82.86 191.852 83.5213 192.34 84.0875C192.828 84.6537 193.429 85.1124 194.103 85.4345C194.778 85.7566 195.512 85.9352 196.259 85.9589M195.999 74.0685C196.829 73.9884 197.666 74.0837 198.456 74.348C199.247 74.6123 199.973 75.0399 200.587 75.603C201.202 76.166 201.691 76.852 202.023 77.6163C202.355 78.3807 202.523 79.2063 202.516 80.0397C202.546 80.9215 202.392 81.7998 202.064 82.619C201.737 83.4382 201.242 84.1802 200.612 84.7979C199.982 85.4157 199.231 85.8956 198.405 86.2072C197.58 86.5188 196.699 86.6553 195.818 86.608C194.975 86.6549 194.132 86.5267 193.342 86.2313C192.552 85.9359 191.831 85.4798 191.226 84.8918C190.621 84.3038 190.144 83.5967 189.827 82.8152C189.509 82.0336 189.356 81.1946 189.379 80.3512C189.378 79.497 189.551 78.6515 189.888 77.8664C190.224 77.0812 190.717 76.373 191.337 75.785C191.957 75.1969 192.69 74.7414 193.491 74.4463C194.293 74.1512 195.146 74.0226 195.999 74.0685Z" fill="white"/>
<path d="M208.51 80.3268C208.496 80.3595 208.489 80.3949 208.489 80.4306C208.489 80.4664 208.496 80.5017 208.51 80.5345C209.099 80.7106 209.713 80.7895 210.328 80.7681C210.754 80.7992 211.18 80.6995 211.548 80.4826C211.899 80.1876 212.173 79.8108 212.345 79.3853C212.517 78.9598 212.582 78.4986 212.534 78.0422C212.592 77.644 212.561 77.238 212.444 76.8533C212.326 76.4685 212.125 76.1145 211.855 75.8167C211.584 75.5189 211.251 75.2847 210.879 75.1308C210.508 74.9769 210.106 74.9073 209.705 74.9268C209.316 74.8843 208.925 74.8843 208.536 74.9268C208.497 74.9383 208.464 74.9624 208.44 74.9954C208.417 75.0283 208.405 75.0681 208.406 75.1085L208.51 80.3268ZM207.082 78.9768C207.082 76.3806 207.082 76.0431 207.082 75.5499C207.082 75.0566 206.953 74.7451 206.407 74.6672H205.862C205.842 74.6765 205.82 74.6813 205.797 74.6813C205.775 74.6813 205.753 74.6765 205.732 74.6672C205.732 74.6672 205.732 74.5114 205.992 74.5114H207.939H209.99C211.058 74.4362 212.124 74.6802 213.054 75.2124C213.397 75.465 213.679 75.7928 213.877 76.1707C214.075 76.5486 214.184 76.9667 214.196 77.3931C214.16 78.1138 213.959 78.8165 213.608 79.4468C213.256 80.0771 212.765 80.618 212.171 81.0277C213.521 82.6893 214.767 84.1431 215.624 85.1297C216.087 85.7075 216.74 86.1029 217.467 86.246H218.038C218.062 86.2323 218.089 86.2251 218.116 86.2251C218.143 86.2251 218.17 86.2323 218.194 86.246C218.194 86.246 218.194 86.246 217.805 86.246H216.766C216.161 86.2946 215.553 86.1873 215.001 85.9345C214.119 85.3001 213.362 84.5079 212.768 83.5979C212.067 82.7152 211.34 81.7027 210.977 81.2614C210.945 81.2432 210.909 81.2336 210.873 81.2336C210.836 81.2336 210.801 81.2432 210.769 81.2614H208.666V81.8585C208.666 83.3902 208.666 84.6104 208.666 85.2595C208.666 85.9085 208.822 86.0383 209.341 86.1162H210.068H210.198C210.198 86.1162 210.198 86.1162 209.938 86.1162H207.913H206.278C206.122 86.1162 206.018 86.1162 206.018 86.1162H206.148H206.667C206.979 86.1162 207.005 85.7268 207.082 85.2595C207.15 84.1182 207.15 82.9739 207.082 81.8326V78.9768Z" fill="white"/>
<path d="M225.204 81.3116L223.595 76.9501C223.595 76.6905 223.387 76.6905 223.309 76.9501L221.777 81.2078L225.204 81.3116ZM223.361 74.6914C223.569 74.1722 223.647 74.0684 223.777 74.0684C223.906 74.0684 223.984 74.302 224.166 74.6395C224.348 74.977 227.1 81.8828 228.112 84.2972C228.709 85.7251 229.151 85.9328 229.514 86.0366C229.729 86.0686 229.948 86.0686 230.163 86.0366H230.371C230.371 86.0366 230.189 86.0366 230.007 86.0366C229.826 86.0366 228.527 86.0366 227.411 86.0366C227.1 86.0366 226.84 86.0366 226.84 86.0366C226.881 86.0201 226.918 85.9951 226.949 85.9631C226.979 85.9311 227.003 85.893 227.018 85.8512C227.032 85.8094 227.038 85.765 227.034 85.7209C227.031 85.6767 227.017 85.6339 226.996 85.5953L225.516 81.9607C225.516 81.9607 225.516 81.9607 225.36 81.9607H221.777C221.754 81.947 221.727 81.9398 221.7 81.9398C221.672 81.9398 221.645 81.947 221.622 81.9607L220.687 84.5568C220.539 84.8937 220.451 85.254 220.427 85.6212C220.427 85.9328 220.713 86.0626 220.999 86.0626H221.154H221.31C221.31 86.0626 221.31 86.0626 221.077 86.0626H219.597H217.935C217.727 86.0626 217.598 86.0626 217.598 86.0626C217.621 86.0489 217.648 86.0417 217.676 86.0417C217.703 86.0417 217.73 86.0489 217.753 86.0626H218.247C219 86.0626 219.311 85.4135 219.623 84.6087L223.361 74.6914Z" fill="white"/>
<path d="M236.056 81.8587C236.056 83.3904 236.056 84.6366 236.056 85.2856C236.056 85.9346 236.056 86.0645 236.679 86.1423H237.432C237.432 86.1423 237.432 86.1423 237.172 86.1423H235.147H233.434C233.252 86.1423 233.174 86.1423 233.174 86.1423H233.304H233.797C234.135 86.1423 234.212 85.7269 234.29 85.2596C234.368 84.7923 234.29 83.3645 234.29 81.8327V75.1087H232.161C231.123 75.1087 230.734 75.2385 230.5 75.602C230.397 75.7661 230.31 75.94 230.24 76.1212C230.24 76.251 230.24 76.2769 230.059 76.2769C230.059 76.0952 230.396 74.6673 230.422 74.5375C230.448 74.4077 230.422 74.252 230.578 74.252C230.815 74.33 231.058 74.3907 231.305 74.4337H232.603H238.808C239.205 74.4556 239.604 74.4556 240.002 74.4337H240.469C240.469 74.4337 240.469 74.4337 240.469 74.6154C240.469 75.1087 240.469 76.251 240.469 76.4327C240.469 76.6145 240.469 76.6404 240.339 76.6404C240.21 76.6404 240.339 76.6404 240.184 76.3548V76.1991C240.184 75.7058 239.768 75.3423 238.185 75.3164H236.056V81.8587Z" fill="white"/>
<path d="M245.14 78.9771C245.14 76.381 245.14 76.0435 245.14 75.5502C245.14 75.0569 245.14 74.7454 244.465 74.6675H243.919C243.896 74.6812 243.869 74.6884 243.842 74.6884C243.814 74.6884 243.787 74.6812 243.764 74.6675C243.764 74.6675 243.764 74.5117 244.049 74.5117H245.944H249.865H250.618H250.851C250.851 74.5117 250.851 74.5117 250.851 74.6675C250.837 74.9182 250.837 75.1696 250.851 75.4204C250.851 75.5761 250.851 76.2771 250.851 76.4588C250.851 76.6406 250.851 76.6406 250.695 76.6406C250.54 76.6406 250.695 76.6406 250.695 76.4329C250.727 76.2438 250.727 76.0508 250.695 75.8617C250.695 75.6021 250.41 75.4983 249.501 75.3944C249.216 75.3944 247.32 75.3944 247.139 75.3944C246.957 75.3944 247.139 75.3944 247.139 75.5762V79.5223V79.704C247.139 79.704 249.501 79.704 249.891 79.704C250.174 79.7249 250.457 79.6519 250.695 79.4963L250.332 79.2627C250.267 79.5532 250.223 79.8483 250.202 80.1454C250.184 80.4826 250.184 80.8206 250.202 81.1579C250.202 81.1579 250.202 81.4694 250.046 81.4694C249.891 81.4694 250.046 81.4694 250.046 81.3136C250.081 81.1423 250.081 80.9658 250.046 80.7944C250.046 80.5608 249.839 80.379 249.19 80.3012C248.541 80.2233 246.983 80.3012 246.593 80.3012V80.431V81.8588C246.593 82.404 246.593 84.2473 246.593 84.455C246.593 85.5194 246.931 85.7271 248.567 85.7271C249.116 85.7525 249.667 85.7001 250.202 85.5713C250.408 85.4697 250.579 85.3095 250.695 85.111C250.81 84.9124 250.865 84.6843 250.851 84.455C250.851 84.2733 250.851 84.2213 251.033 84.2213C251.215 84.2213 251.033 84.2213 251.033 84.455C250.991 84.9704 250.913 85.4822 250.799 85.9867C250.799 86.4021 250.514 86.4021 249.891 86.4021H247.035H245.14H244.179C243.997 86.4021 243.919 86.4021 243.919 86.4021H244.413C244.75 86.4021 244.776 86.0127 244.854 85.5454C245.028 84.3239 245.123 83.0925 245.14 81.8588V78.9771Z" fill="white"/>
<path d="M270.845 78.9757C270.845 76.3795 270.845 76.042 270.845 75.5487C270.845 75.0555 270.715 74.7439 270.17 74.666H269.625C269.625 74.666 269.625 74.5103 269.885 74.5103H271.78H274.142C275.268 74.3915 276.395 74.7176 277.284 75.4189C277.543 75.6662 277.749 75.9646 277.887 76.2953C278.026 76.6259 278.094 76.9816 278.088 77.3401C278.069 77.8777 277.936 78.4052 277.698 78.8878C277.461 79.3705 277.124 79.7974 276.709 80.1406C276.295 80.4838 275.813 80.7356 275.294 80.8793C274.776 81.0231 274.233 81.0556 273.701 80.9747H273.234C273.234 80.9747 273.052 80.9747 273.052 80.8189C273.052 80.6632 273.052 80.6632 273.493 80.6632C273.865 80.7025 274.241 80.6655 274.598 80.5547C274.955 80.4438 275.286 80.2614 275.57 80.0184C275.855 79.7755 276.086 79.4771 276.252 79.1416C276.417 78.8061 276.512 78.4405 276.531 78.067C276.551 77.6218 276.478 77.1773 276.317 76.7617C276.156 76.3461 275.911 75.9684 275.596 75.6526C275.302 75.3711 274.949 75.1578 274.564 75.0277C274.178 74.8976 273.768 74.8539 273.363 74.8997C273.061 74.8825 272.757 74.8825 272.455 74.8997C272.455 74.8997 272.455 74.8997 272.455 75.1853V81.8574C272.455 83.3891 272.455 84.6353 272.455 85.2843C272.455 85.9334 272.611 86.0632 273.104 86.1411H273.831C273.831 86.1411 273.831 86.1411 273.571 86.1411H271.52H269.885C269.729 86.1411 269.625 86.1411 269.625 86.1411H270.144C270.456 86.1411 270.482 85.7516 270.56 85.2843C270.627 84.143 270.627 82.9987 270.56 81.8574L270.845 78.9757Z" fill="white"/>
<path d="M284.085 80.3268C284.085 80.3268 284.085 80.4566 284.085 80.5345C284.675 80.7083 285.288 80.7872 285.903 80.7681C286.337 80.798 286.771 80.6986 287.149 80.4826C287.5 80.1876 287.774 79.8108 287.946 79.3853C288.118 78.9598 288.183 78.4986 288.135 78.0422C288.189 77.6448 288.154 77.2407 288.035 76.858C287.916 76.4753 287.714 76.1232 287.445 75.8265C287.175 75.5298 286.844 75.2955 286.475 75.1401C286.105 74.9847 285.706 74.9119 285.306 74.9268C284.908 74.8862 284.508 74.8862 284.111 74.9268C284.095 74.9544 284.087 74.9858 284.087 75.0177C284.087 75.0496 284.095 75.0809 284.111 75.1085L284.085 80.3268ZM282.657 78.9768C282.657 76.3806 282.657 76.0431 282.657 75.5499C282.657 75.0566 282.657 74.7451 281.982 74.6672H281.489C281.469 74.6765 281.447 74.6813 281.424 74.6813C281.402 74.6813 281.38 74.6765 281.359 74.6672C281.359 74.6672 281.359 74.5114 281.619 74.5114H283.566H285.643C286.711 74.4362 287.777 74.6802 288.706 75.2124C289.05 75.465 289.332 75.7928 289.53 76.1707C289.728 76.5486 289.837 76.9667 289.849 77.3931C289.813 78.1138 289.612 78.8165 289.26 79.4468C288.909 80.0771 288.418 80.618 287.824 81.0277C289.174 82.6893 290.42 84.1431 291.277 85.1297C291.728 85.7092 292.373 86.1058 293.094 86.246H293.665C293.689 86.2323 293.716 86.2251 293.743 86.2251C293.77 86.2251 293.797 86.2323 293.821 86.246C293.821 86.246 293.821 86.246 293.431 86.246H292.419C291.813 86.2982 291.205 86.1908 290.654 85.9345C289.756 85.3093 288.989 84.5158 288.395 83.5979L286.63 81.2614C286.593 81.2431 286.553 81.2336 286.513 81.2336C286.472 81.2336 286.432 81.2431 286.396 81.2614H284.293V81.8585C284.293 83.3902 284.293 84.6104 284.293 85.2595C284.293 85.9085 284.449 86.0383 284.942 86.1162H285.669C285.669 86.1162 285.669 86.1162 285.409 86.1162H283.384H281.775C281.593 86.1162 281.515 86.1162 281.515 86.1162H281.645H282.138C282.45 86.1162 282.502 85.7268 282.58 85.2595C282.657 84.7922 282.58 83.3643 282.58 81.8326L282.657 78.9768Z" fill="white"/>
<path d="M301.66 85.9589C303.14 85.9589 306.099 85.1541 306.099 80.5589C306.186 79.8501 306.125 79.131 305.921 78.4466C305.717 77.7623 305.374 77.1274 304.914 76.5816C304.453 76.0358 303.885 75.5909 303.245 75.2746C302.605 74.9583 301.906 74.7776 301.193 74.7435C300.523 74.7144 299.856 74.8327 299.238 75.0901C298.619 75.3475 298.065 75.7377 297.614 76.2332C297.163 76.7286 296.827 77.317 296.629 77.9569C296.431 78.5968 296.376 79.2724 296.468 79.9358C296.377 80.679 296.443 81.433 296.66 82.1493C296.878 82.8657 297.243 83.5286 297.732 84.0957C298.221 84.6628 298.823 85.1214 299.499 85.4423C300.175 85.7631 300.912 85.9391 301.66 85.9589ZM301.271 74.0685C302.1 73.9884 302.937 74.0837 303.728 74.348C304.518 74.6123 305.244 75.0399 305.858 75.603C306.473 76.166 306.962 76.852 307.294 77.6163C307.627 78.3807 307.794 79.2063 307.787 80.0397C307.805 80.9059 307.646 81.7666 307.32 82.5692C306.994 83.3718 306.507 84.0993 305.889 84.707C305.272 85.3147 304.537 85.7899 303.729 86.1034C302.922 86.4169 302.058 86.5621 301.193 86.5301C300.35 86.5771 299.507 86.4488 298.717 86.1534C297.927 85.858 297.206 85.4019 296.601 84.8139C295.996 84.2259 295.519 83.5188 295.202 82.7373C294.884 81.9557 294.731 81.1168 294.754 80.2733C294.764 79.4348 294.942 78.6068 295.276 77.838C295.611 77.0692 296.097 76.3752 296.704 75.7969C297.311 75.2186 298.028 74.7678 298.813 74.471C299.597 74.1741 300.433 74.0373 301.271 74.0685Z" fill="white"/>
<path d="M312.353 78.9771C312.353 76.381 312.353 76.0435 312.353 75.5502C312.353 75.0569 312.353 74.7454 311.678 74.6675H311.081C311.061 74.6768 311.038 74.6817 311.016 74.6817C310.994 74.6817 310.972 74.6768 310.951 74.6675C310.951 74.6675 310.951 74.5117 311.211 74.5117H313.08H317.338C317.588 74.536 317.84 74.536 318.091 74.5117H318.324C318.324 74.5117 318.324 74.5117 318.324 74.6675C318.324 74.8233 318.324 74.979 318.324 75.4204C318.324 75.8617 318.324 76.2771 318.324 76.4588C318.324 76.6406 318.324 76.6406 318.194 76.6406C318.065 76.6406 318.194 76.6406 318.194 76.4588C318.17 76.2536 318.118 76.0527 318.039 75.8617C317.908 75.6954 317.736 75.5652 317.541 75.4835C317.346 75.4017 317.133 75.371 316.922 75.3944H314.326C314.326 75.3944 314.326 75.3944 314.326 75.5762V79.9117V80.0675H317.312C317.701 80.0675 317.935 80.0675 318.091 79.7819C318.246 79.4963 317.831 79.2627 317.831 79.2627C317.809 79.5565 317.809 79.8516 317.831 80.1454C317.812 80.4999 317.812 80.8553 317.831 81.2098C317.831 81.3656 317.831 81.5213 317.831 81.5213C317.831 81.5213 317.831 81.5213 317.831 81.3656C317.866 81.1768 317.866 80.9832 317.831 80.7944C317.831 80.5608 317.493 80.3531 317 80.3012C316.507 80.2492 314.638 80.3012 314.404 80.3012C314.17 80.3012 314.404 80.3011 314.404 80.4569V81.8588C314.404 83.4165 314.404 84.6886 314.404 85.2858C314.404 85.8829 314.404 86.0646 315.001 86.1425H315.728C315.752 86.1288 315.779 86.1216 315.806 86.1216C315.833 86.1216 315.86 86.1288 315.884 86.1425C315.884 86.1425 315.884 86.1425 315.598 86.1425H313.547H311.912C311.756 86.1425 311.652 86.1425 311.652 86.1425H312.171C312.483 86.1425 312.535 85.7531 312.587 85.2858C312.654 84.1445 312.654 83.0001 312.587 81.8588L312.353 78.9771Z" fill="white"/>
<path d="M323.498 78.9771C323.498 76.381 323.498 76.0435 323.498 75.5502C323.498 75.0569 323.498 74.7454 322.823 74.6675H322.277C322.277 74.6675 322.277 74.5117 322.537 74.5117H324.432H328.223H328.975C328.975 74.5117 328.975 74.5117 329.183 74.5117C329.391 74.5117 329.183 74.5117 329.183 74.6675C329.183 74.8233 329.183 74.979 329.183 75.4204C329.183 75.8617 329.183 76.2771 329.183 76.4588C329.183 76.6406 329.183 76.6406 329.183 76.6406C329.183 76.6406 329.183 76.6406 329.183 76.4329C329.212 76.2436 329.212 76.051 329.183 75.8617C329.183 75.6021 328.898 75.4983 328.015 75.3944C327.729 75.3944 325.808 75.3944 325.626 75.3944C325.445 75.3944 325.626 75.3944 325.626 75.5762V79.5223V79.704C325.626 79.704 328.015 79.704 328.378 79.704C328.742 79.704 329.027 79.704 329.183 79.4963C329.339 79.2886 329.365 79.2886 329.417 79.2886C329.351 79.5792 329.308 79.8743 329.287 80.1713C329.287 80.4829 329.287 81.08 329.287 81.1838C329.287 81.2877 329.287 81.4954 329.131 81.4954C328.975 81.4954 329.131 81.4954 329.131 81.3396C329.165 81.1682 329.165 80.9918 329.131 80.8204C329.131 80.5867 328.923 80.405 328.3 80.3271C327.677 80.2492 326.094 80.3271 325.704 80.3271V80.4569V84.455C325.704 85.5194 326.042 85.7271 327.677 85.7271C328.236 85.7525 328.795 85.7001 329.339 85.5713C329.557 85.4785 329.743 85.3228 329.872 85.1239C330.002 84.9251 330.069 84.6922 330.066 84.455C330.066 84.2733 330.066 84.2213 330.248 84.2213C330.429 84.2213 330.248 84.2213 330.248 84.455C330.248 84.6886 330.118 85.6492 330.04 85.9867C329.962 86.3242 329.754 86.4021 329.105 86.4021H326.249H324.173H323.212C323.056 86.4021 322.952 86.4021 322.952 86.4021H323.472C323.783 86.4021 323.809 86.0127 323.887 85.5454C323.955 84.4041 323.955 83.2598 323.887 82.1185L323.498 78.9771Z" fill="white"/>
<path d="M333.546 86.1692C333.313 86.1692 333.312 86.0134 333.312 85.5721C333.312 85.1307 333.312 84.1442 333.312 83.8846C333.312 83.625 333.313 83.625 333.442 83.625C333.572 83.625 333.598 83.625 333.598 83.8067C333.576 84.0051 333.576 84.2054 333.598 84.4038C333.792 84.9178 334.154 85.3512 334.625 85.6339C335.097 85.9166 335.649 86.032 336.194 85.9615C337.83 85.9615 338.661 85.0528 338.661 83.8586C338.661 82.6644 338.063 82.1711 336.584 81.0807L336.013 80.5355C334.221 79.1855 333.65 78.225 333.65 77.1086C333.65 75.2394 335.13 74.123 337.285 74.123C337.86 74.1292 338.434 74.1901 338.998 74.3048C339.187 74.3321 339.38 74.3321 339.569 74.3048C339.569 74.3048 339.751 74.3048 339.751 74.4346C339.721 74.988 339.721 75.5427 339.751 76.0961C339.751 76.3557 339.751 76.4596 339.621 76.4596C339.491 76.4596 339.621 76.4596 339.465 76.2519C339.415 75.9848 339.337 75.7237 339.232 75.473C338.959 75.1907 338.626 74.9739 338.257 74.839C337.888 74.7041 337.494 74.6546 337.103 74.6942C335.883 74.6942 334.896 75.2913 334.896 76.4077C334.896 77.524 335.415 77.9913 337.025 79.0038L337.492 79.3154C339.491 80.6913 340.088 81.9115 340.088 83.1577C340.076 83.6852 339.929 84.2008 339.661 84.6552C339.393 85.1097 339.013 85.4879 338.557 85.7538C337.756 86.1662 336.861 86.3631 335.961 86.325C335.143 86.3366 334.331 86.1867 333.572 85.8836" fill="white"/>
<path d="M344.468 86.1692C344.234 86.1692 344.208 86.0134 344.208 85.5721C344.178 85.01 344.178 84.4467 344.208 83.8846C344.208 83.7288 344.208 83.625 344.208 83.625C344.208 83.625 344.364 83.625 344.364 83.8067C344.343 84.0051 344.343 84.2054 344.364 84.4038C344.558 84.9178 344.92 85.3512 345.391 85.6339C345.863 85.9166 346.415 86.032 346.96 85.9615C348.596 85.9615 349.556 85.0528 349.556 83.8586C349.556 82.6644 348.933 82.1711 347.48 81.0807L346.727 80.5355C344.961 79.1855 344.39 78.225 344.39 77.1086C344.39 75.2394 345.87 74.123 348.025 74.123C348.6 74.1307 349.174 74.1916 349.738 74.3048C349.928 74.3321 350.12 74.3321 350.309 74.3048C350.439 74.3048 350.491 74.3048 350.491 74.4346C350.461 74.988 350.461 75.5427 350.491 76.0961C350.491 76.3557 350.491 76.4596 350.491 76.4596C350.491 76.4596 350.491 76.4596 350.335 76.2519C350.288 75.9808 350.201 75.7182 350.076 75.473C350.076 75.2913 349.427 74.6942 347.947 74.6942C346.467 74.6942 345.766 75.2913 345.766 76.4077C345.766 77.524 346.259 77.9913 347.895 79.0038L348.362 79.3154C350.361 80.6913 350.958 81.9115 350.958 83.1577C350.946 83.6852 350.799 84.2008 350.531 84.6552C350.263 85.1097 349.882 85.4879 349.427 85.7538C348.626 86.1662 347.731 86.3631 346.831 86.325C346.013 86.3394 345.201 86.1893 344.442 85.8836" fill="white"/>
<path d="M357.899 81.8544C357.899 83.3861 357.899 84.6322 357.899 85.2813C357.899 85.9303 357.899 86.0601 358.496 86.138H359.249C359.249 86.138 359.249 86.138 358.989 86.138H356.938H355.303C355.121 86.138 355.043 86.138 355.043 86.138H355.537C355.874 86.138 355.926 85.7486 355.978 85.2813C356.03 84.814 355.978 83.3861 355.978 81.8544V78.9726C355.978 76.3765 355.978 76.039 355.978 75.5457C355.978 75.0524 355.822 74.7669 355.459 74.689C355.286 74.6658 355.112 74.6658 354.939 74.689C354.939 74.689 354.939 74.5332 355.199 74.5332H356.887H358.522C358.704 74.5332 358.782 74.5332 358.782 74.689C358.761 74.6983 358.739 74.7031 358.717 74.7031C358.694 74.7031 358.672 74.6983 358.652 74.689H358.237C357.795 74.689 357.691 75.0005 357.665 75.5717C357.639 76.1428 357.665 76.5322 357.665 78.9986L357.899 81.8544Z" fill="white"/>
<path d="M369.582 85.9589C371.062 85.9589 374.021 85.1541 374.021 80.5589C374.108 79.8501 374.047 79.131 373.843 78.4466C373.639 77.7623 373.296 77.1274 372.836 76.5816C372.375 76.0358 371.807 75.5909 371.167 75.2746C370.526 74.9583 369.828 74.7776 369.115 74.7435C368.445 74.7144 367.778 74.8327 367.16 75.0901C366.541 75.3475 365.987 75.7377 365.536 76.2332C365.085 76.7286 364.749 77.317 364.551 77.9569C364.353 78.5968 364.298 79.2724 364.39 79.9358C364.299 80.679 364.364 81.433 364.582 82.1493C364.8 82.8657 365.165 83.5286 365.654 84.0957C366.143 84.6628 366.744 85.1214 367.421 85.4423C368.097 85.7631 368.833 85.9391 369.582 85.9589ZM369.192 74.0685C370.022 73.9884 370.859 74.0837 371.65 74.348C372.44 74.6123 373.166 75.0399 373.78 75.603C374.395 76.166 374.884 76.852 375.216 77.6163C375.548 78.3807 375.716 79.2063 375.709 80.0397C375.727 80.9059 375.568 81.7666 375.242 82.5692C374.916 83.3718 374.429 84.0993 373.811 84.707C373.194 85.3147 372.459 85.7899 371.651 86.1034C370.843 86.4169 369.98 86.5621 369.115 86.5301C368.272 86.5771 367.429 86.4488 366.639 86.1534C365.848 85.858 365.128 85.4019 364.523 84.8139C363.918 84.2259 363.441 83.5188 363.123 82.7373C362.806 81.9557 362.653 81.1168 362.676 80.2733C362.686 79.4348 362.863 78.6068 363.198 77.838C363.533 77.0692 364.019 76.3752 364.626 75.7969C365.233 75.2186 365.95 74.7678 366.734 74.471C367.519 74.1741 368.354 74.0373 369.192 74.0685Z" fill="white"/>
<path d="M380.973 84.2235C380.973 85.5475 381.154 85.9369 381.596 86.0408C381.872 86.07 382.15 86.07 382.427 86.0408H382.556C382.556 86.0408 382.556 86.0408 382.271 86.0408C381.336 86.0408 380.661 86.0408 380.531 86.0408H378.922C378.766 86.0408 378.662 86.0408 378.662 86.0408C378.886 86.0702 379.113 86.0702 379.337 86.0408C379.752 86.0408 379.804 85.4956 379.804 84.0677V74.9552C379.804 74.3062 379.804 74.1504 380.038 74.1504C380.272 74.1504 380.505 74.4619 380.661 74.6437L385.853 80.0696L389.748 84.1456L389.566 76.1754C389.566 75.1629 389.566 74.7994 388.943 74.6956C388.675 74.6748 388.406 74.6748 388.138 74.6956C388.138 74.6956 388.138 74.6956 388.138 74.5398C388.138 74.384 388.138 74.5398 388.476 74.5398H390.189H391.591C391.747 74.5398 391.877 74.5398 391.877 74.5398C391.87 74.5834 391.848 74.6232 391.815 74.6518C391.781 74.6805 391.739 74.696 391.695 74.6956H391.305C390.76 74.6956 390.734 75.1369 390.734 76.0715V85.3917C390.734 86.4562 390.734 86.5341 390.734 86.5341C390.734 86.5341 390.397 86.4042 389.488 85.5735C389.332 85.4177 386.892 82.9773 385.204 81.2639C383.517 79.5504 381.284 77.2917 380.791 76.6687L380.973 84.2235Z" fill="white"/>
<path d="M401.327 81.3116L399.691 76.9501C399.691 76.6905 399.509 76.6905 399.432 76.9501L397.874 81.3116H401.327ZM399.483 74.6914C399.691 74.1722 399.769 74.0684 399.873 74.0684C399.977 74.0684 400.107 74.302 400.288 74.6395C400.47 74.977 403.222 81.8828 404.234 84.2972C404.832 85.7251 405.273 85.9328 405.636 86.0366C405.851 86.0702 406.07 86.0702 406.285 86.0366H406.493C406.493 86.0366 406.311 86.0366 406.104 86.0366C405.896 86.0366 404.65 86.0366 403.507 86.0366C403.196 86.0366 402.936 86.0366 402.936 86.0366C402.977 86.0201 403.015 85.9951 403.045 85.9631C403.076 85.9311 403.099 85.893 403.114 85.8512C403.129 85.8094 403.134 85.765 403.131 85.7209C403.127 85.6767 403.114 85.6339 403.092 85.5953L401.612 81.9607C401.612 81.9607 401.612 81.9607 401.457 81.9607H397.666C397.666 81.9607 397.536 81.9607 397.484 81.9607L396.55 84.5568C396.421 84.8984 396.342 85.257 396.316 85.6212C396.316 85.9328 396.602 86.0626 396.887 86.0626H397.017C397.173 86.0626 397.199 86.0626 397.199 86.0626C397.199 86.0626 397.199 86.0626 396.965 86.0626H395.485H393.824C393.616 86.0626 393.486 86.0626 393.486 86.0626C393.51 86.0489 393.537 86.0417 393.564 86.0417C393.592 86.0417 393.618 86.0489 393.642 86.0626H394.135C394.888 86.0626 395.2 85.4135 395.511 84.6087L399.483 74.6914Z" fill="white"/>
<path d="M411.293 81.8544C411.293 84.1909 411.293 85.1515 411.631 85.437C411.968 85.7226 412.539 85.8005 413.837 85.8005C414.694 85.8005 415.421 85.8005 415.811 85.3332C416.013 85.0671 416.147 84.7549 416.2 84.4245C416.2 84.4245 416.2 84.2169 416.382 84.2169C416.563 84.2169 416.382 84.2169 416.382 84.4765C416.346 85.0097 416.268 85.5393 416.148 86.0601C416.018 86.4236 415.966 86.4755 415.084 86.4755C414.201 86.4755 413.007 86.4755 412.228 86.4755H409.632H408.671C408.515 86.4755 408.411 86.4755 408.411 86.4755H408.905C409.242 86.4755 409.268 86.112 409.346 85.6447C409.413 84.4948 409.413 83.3418 409.346 82.1918V78.9726C409.346 76.3765 409.346 76.039 409.346 75.5457C409.346 75.0524 409.216 74.7409 408.671 74.663H408.126C408.106 74.6723 408.083 74.6772 408.061 74.6772C408.039 74.6772 408.016 74.6723 407.996 74.663C407.996 74.663 407.996 74.5332 408.256 74.5332H411.942C412.098 74.5332 412.202 74.5332 412.202 74.663H411.657C411.163 74.663 411.086 75.0005 411.034 75.5717C410.982 76.1428 411.034 76.5322 411.034 78.9986L411.293 81.8544Z" fill="white"/>
<path d="M419.527 86.1692C419.319 86.1692 419.293 86.0134 419.293 85.5721C419.293 85.1307 419.293 84.1442 419.293 83.8846C419.293 83.625 419.293 83.625 419.293 83.625C419.293 83.625 419.449 83.625 419.449 83.8067C419.427 84.0051 419.427 84.2054 419.449 84.4038C419.643 84.9178 420.005 85.3512 420.476 85.6339C420.947 85.9166 421.5 86.032 422.045 85.9615C423.654 85.9615 424.641 85.0528 424.641 83.8586C424.641 82.6644 424.018 82.1711 422.564 81.0807L421.811 80.5355C420.02 79.1855 419.449 78.225 419.449 77.1086C419.449 75.2394 420.929 74.123 423.109 74.123C423.676 74.1305 424.241 74.1914 424.797 74.3048C424.995 74.3339 425.196 74.3339 425.394 74.3048C425.524 74.3048 425.55 74.3048 425.55 74.4346C425.52 74.988 425.52 75.5427 425.55 76.0961C425.55 76.3557 425.55 76.4596 425.55 76.4596C425.55 76.4596 425.55 76.4596 425.394 76.2519C425.357 75.9816 425.279 75.7188 425.16 75.473C425.16 75.2913 424.511 74.6942 423.031 74.6942C421.552 74.6942 420.825 75.2913 420.825 76.4077C420.825 77.524 421.344 77.9913 422.98 79.0038L423.447 79.3154C425.446 80.6913 426.043 81.9115 426.043 83.1577C426.036 83.6863 425.891 84.2038 425.622 84.6592C425.353 85.1145 424.97 85.4918 424.511 85.7538C423.71 86.1662 422.815 86.3631 421.915 86.325C421.098 86.3366 420.286 86.1867 419.527 85.8836" fill="white"/>
</g>
</g>
<g clip-path="url(#clip1_160_74)">
<mask id="mask2_160_74" style="mask-type:luminance" maskUnits="userSpaceOnUse" x="-149" y="0" width="405" height="228">
<path d="M255.677 0.078125H-148.596V227.951H255.677V0.078125Z" fill="white"/>
</mask>
<g mask="url(#mask2_160_74)">
<path d="M53.5148 4.88915C44.2449 4.88915 35.1832 7.63798 27.4756 12.788C19.768 17.9381 13.7607 25.2581 10.2132 33.8223C6.66582 42.3865 5.73766 51.8104 7.54612 60.9021C9.35458 69.9939 13.8184 78.3452 20.3732 84.8999C26.928 91.4547 35.2793 95.9186 44.371 97.727C53.4628 99.5355 62.8866 98.6073 71.4508 95.0599C80.0151 91.5125 87.3351 85.5051 92.4851 77.7975C97.6352 70.0899 100.384 61.0282 100.384 51.7584C100.375 39.3307 95.4339 27.4147 86.6462 18.627C77.8585 9.83925 65.9424 4.89831 53.5148 4.88915ZM53.5148 103.405C43.2918 103.405 33.2985 100.373 24.7989 94.6923C16.2993 89.0121 9.67523 80.9386 5.76465 71.4931C1.85408 62.0477 0.832654 51.6546 2.82958 41.6286C4.8265 31.6026 9.75205 22.394 16.9832 15.1677C24.2143 7.94139 33.4262 3.02201 43.4536 1.03181C53.4809 -0.958397 63.8733 0.0699951 73.3161 3.9869C82.7589 7.9038 90.828 14.5332 96.5026 23.0367C102.177 31.5401 105.202 41.5354 105.196 51.7584C105.186 65.459 99.7374 78.5953 90.0464 88.2798C80.3553 97.9644 67.2153 103.405 53.5148 103.405Z" fill="white"/>
</g>
<path d="M61.0301 20.2598L35.207 29.6405L75.6032 70.0713L85.0186 44.2482L61.0301 20.2598Z" fill="white"/>
<path d="M46.0119 83.2256L71.8696 73.8448L31.4388 33.4141L22.0234 59.2371L46.0119 83.2256Z" fill="white"/>
</g>
<defs>
<clipPath id="clip0_160_74">
<rect width="303.75" height="70.0962" fill="white" transform="translate(128.32 16.9551)"/>
</clipPath>
<clipPath id="clip1_160_74">
<rect width="107.308" height="103.846" fill="white" transform="translate(0.244141 0.0761719)"/>
</clipPath>
</defs>
</svg>
