<svg width="298" height="98" viewBox="0 0 298 98" fill="none" xmlns="http://www.w3.org/2000/svg">
<path d="M96.9961 68.881V12.6643H118.194C121.05 12.6078 123.906 12.791 126.732 13.2119C129.219 13.5638 131.596 14.4663 133.69 15.8536C135.632 17.2421 137.185 19.1056 138.201 21.2659C139.699 24.4899 140.226 28.0806 139.717 31.5992C139.208 35.1177 137.684 38.4118 135.333 41.0787C132.305 44.3003 126.796 46.0399 118.839 46.0399H104.438V68.881H96.9961ZM104.438 39.4035H118.968C122.576 39.7914 126.205 38.8898 129.212 36.8584C130.234 35.8969 131.034 34.7246 131.557 33.4228C132.08 32.121 132.313 30.7209 132.241 29.3199C132.295 27.1711 131.663 25.061 130.437 23.2955C129.306 21.6925 127.636 20.5492 125.733 20.0739C123.452 19.6324 121.128 19.4594 118.806 19.5585H104.438V39.4035Z" fill="white"/>
<path d="M175.148 68.8811V62.8889C173.777 65.0515 171.87 66.8228 169.612 68.0308C167.354 69.2388 164.822 69.8424 162.262 69.7831C159.948 69.7982 157.657 69.3377 155.529 68.43C153.712 67.683 152.115 66.4856 150.89 64.9507C149.826 63.413 149.102 61.6671 148.763 59.8284C148.439 57.6967 148.298 55.541 148.344 53.3852V28.1602H155.239V50.7113C155.159 53.147 155.31 55.5848 155.69 57.9921C156.052 59.7053 157.026 61.2281 158.428 62.2768C159.956 63.3415 161.786 63.8839 163.647 63.8232C165.696 63.8182 167.707 63.2738 169.478 62.2446C171.211 61.2698 172.562 59.7368 173.312 57.8954C174.143 55.3405 174.482 52.6514 174.311 49.9703V28.1602H181.205V68.8811H175.148Z" fill="white"/>
<path d="M192.006 68.8808V12.6641H198.9V68.8808H192.006Z" fill="white"/>
<path d="M209.438 68.8808V12.6641H216.203V68.8808H209.438Z" fill="white"/>
<path d="M226.737 84.538L225.964 78.0948C227.241 78.4742 228.563 78.68 229.894 78.7069C231.171 78.7572 232.44 78.5032 233.599 77.9659C234.516 77.4422 235.291 76.7009 235.854 75.8075C236.686 74.1468 237.387 72.4233 237.948 70.6529C237.948 70.2986 238.303 69.7187 238.56 68.9777L223.129 28.1602H230.571L239.044 51.7422C240.139 54.7383 241.106 57.8632 241.975 61.1815C242.76 58.042 243.706 54.9452 244.81 51.9033L253.509 28.1602H260.435L244.939 69.5576C243.827 72.6894 242.536 75.755 241.073 78.7391C240.096 80.7236 238.647 82.4381 236.853 83.7326C235.169 84.8296 233.192 85.3911 231.183 85.3434C229.666 85.3322 228.162 85.0598 226.737 84.538Z" fill="white"/>
<path d="M263.523 56.7358L270.353 55.6405C270.557 58.1231 271.711 60.4313 273.575 62.0836C275.681 63.6721 278.288 64.4496 280.92 64.2743C283.425 64.4656 285.918 63.7824 287.976 62.3414C288.703 61.793 289.291 61.0819 289.694 60.2651C290.097 59.4483 290.303 58.5485 290.295 57.6378C290.31 56.9013 290.13 56.1738 289.773 55.529C289.417 54.8842 288.897 54.3448 288.265 53.9652C286.019 52.8956 283.649 52.1058 281.21 51.6135C277.62 50.8566 274.105 49.7784 270.708 48.3919C268.91 47.5957 267.387 46.2885 266.327 44.633C265.268 42.9775 264.718 41.0469 264.748 39.0815C264.721 37.319 265.142 35.5786 265.972 34.0236C266.787 32.491 267.958 31.1764 269.387 30.1899C270.714 29.2567 272.198 28.5693 273.768 28.1603C275.677 27.5563 277.662 27.2308 279.664 27.1938C282.525 27.1393 285.373 27.5975 288.072 28.5469C290.214 29.2663 292.104 30.5858 293.517 32.3483C294.808 34.278 295.625 36.4859 295.901 38.7915L289.135 39.7258C288.926 37.8028 287.979 36.036 286.494 34.7968C284.665 33.5307 282.463 32.9178 280.244 33.0571C277.878 32.8469 275.507 33.4001 273.478 34.6357C272.868 35.0376 272.364 35.5818 272.01 36.2216C271.657 36.8614 271.464 37.5775 271.449 38.3083C271.429 39.188 271.727 40.0454 272.286 40.7245C272.984 41.5648 273.897 42.1995 274.928 42.5608C275.594 42.8185 277.623 43.3984 281.017 44.3005C284.485 45.1586 287.896 46.2346 291.229 47.5221C293.056 48.2683 294.632 49.52 295.772 51.1302C296.912 52.892 297.485 54.9606 297.415 57.058C297.412 59.3577 296.716 61.6031 295.417 63.5011C293.978 65.6022 291.965 67.2459 289.619 68.2369C286.894 69.3674 283.966 69.9266 281.017 69.8799C276.743 70.189 272.488 69.0545 268.936 66.6583C265.934 64.1605 263.998 60.6118 263.523 56.7358Z" fill="white"/>
<path d="M17.2765 94.4954C15.4182 94.5008 13.5772 94.1394 11.8588 93.4319C10.1404 92.7245 8.57856 91.685 7.26267 90.3728C5.94677 89.0607 4.90273 87.5019 4.19037 85.7855C3.478 84.0692 3.11132 82.2292 3.11133 80.371C3.11133 76.2912 4.73202 72.3786 7.61686 69.4938C10.5017 66.6089 14.4144 64.9883 18.4942 64.9883H31.4011V80.371C31.4011 84.117 29.913 87.7096 27.2641 90.3585C24.6153 93.0073 21.0226 94.4954 17.2765 94.4954Z" fill="white"/>
<path d="M17.2796 97.4621C12.7154 97.4621 8.33817 95.649 5.1108 92.4217C1.88343 89.1944 0.0703125 84.8171 0.0703125 80.253V17.5858C0.0807911 13.089 1.8635 8.77757 5.03186 5.58645C8.20022 2.39532 12.4988 0.581776 16.9955 0.539062C17.7813 0.539062 18.5349 0.851223 19.0906 1.40687C19.6462 1.96252 19.9584 2.71615 19.9584 3.50195C19.9477 4.28071 19.6309 5.02394 19.0764 5.57085C18.5219 6.11775 17.7743 6.42433 16.9955 6.42426C14.0352 6.42426 11.1962 7.60021 9.10299 9.69341C7.00976 11.7866 5.8338 14.6256 5.8338 17.5858V67.1026C9.05454 64.2373 13.2123 62.6493 17.5231 62.638H28.4819V14.7853C28.4819 11.007 29.9828 7.38337 32.6545 4.71169C35.3263 2.04 38.9499 0.539063 42.7283 0.539063C65.9852 0.539062 80.2721 13.6488 80.2721 34.7138C80.2721 51.5576 68.664 68.5232 42.7283 68.5232H34.3671V80.253C34.3672 84.7961 32.5709 89.155 29.3698 92.3788C26.1687 95.6027 21.8227 97.43 17.2796 97.4621ZM5.95556 80.253C5.95556 81.7401 6.24847 83.2126 6.81756 84.5865C7.38665 85.9604 8.22077 87.2087 9.2723 88.2602C10.3238 89.3118 11.5722 90.1459 12.9461 90.715C14.32 91.284 15.7925 91.5769 17.2796 91.5769C18.7667 91.5769 20.2392 91.284 21.6131 90.715C22.987 90.1459 24.2354 89.3118 25.2869 88.2602C26.3384 87.2087 27.1726 85.9604 27.7417 84.5865C28.3107 83.2126 28.6037 81.7401 28.6037 80.253V68.5232H17.6449C16.0977 68.5125 14.5636 68.808 13.1311 69.3927C11.6986 69.9774 10.3959 70.8397 9.29806 71.93C8.20023 73.0202 7.32895 74.3169 6.73439 75.7454C6.13984 77.1738 5.83377 78.7058 5.8338 80.253H5.95556ZM34.3671 62.638H42.7283C61.9669 62.638 74.3869 51.6794 74.3869 34.7138C74.3869 16.7335 62.8193 6.30249 42.7283 6.30249C40.5108 6.30249 38.3841 7.18339 36.8161 8.75138C35.248 10.3194 34.3671 12.446 34.3671 14.6635V62.638Z" fill="white"/>
<path d="M61.0711 33.6181C61.0711 35.6095 60.28 37.5194 58.8718 38.9275C57.4636 40.3357 55.5537 41.1268 53.5623 41.1268C51.6055 41.1275 49.7257 40.3643 48.3233 38.9998C46.9208 37.6352 46.1064 35.7771 46.0535 33.821C46.0264 32.818 46.2006 31.8197 46.5658 30.8852C46.931 29.9506 47.4798 29.0988 48.1797 28.3799C48.8797 27.661 49.7167 27.0897 50.6412 26.6997C51.5657 26.3097 52.5589 26.109 53.5623 26.1094C55.5537 26.1094 57.4636 26.9005 58.8718 28.3086C60.28 29.7168 61.0711 31.6266 61.0711 33.6181Z" fill="white"/>
</svg>
