<svg width="443" height="98" viewBox="0 0 443 98" fill="none" xmlns="http://www.w3.org/2000/svg">
<g clip-path="url(#clip0_160_22)">
<path d="M11.5195 26.5562C12.3271 26.2663 13.2728 26.0109 14.3634 25.8038C15.454 25.5968 16.5515 25.4863 17.6697 25.4863C18.9121 25.4863 19.9682 25.6313 20.8379 25.9143C21.7077 26.1973 22.4186 26.5838 22.9639 27.067C23.5161 27.5502 23.9096 28.1162 24.1581 28.7581C24.4066 29.4001 24.5308 30.0765 24.5308 30.7875C24.5308 31.6641 24.3651 32.4372 24.0338 33.1067C23.7025 33.7763 23.2814 34.3492 22.7569 34.8393C22.2323 35.3224 21.6386 35.7297 20.9622 36.0472C20.2857 36.3647 19.6093 36.6132 18.9328 36.772C19.2435 36.9721 19.5334 37.2275 19.8095 37.5243C20.0856 37.8212 20.3755 38.1801 20.6861 38.5804L23.4057 42.0938C23.9717 42.8255 24.4963 43.4605 24.9726 43.9851C25.4488 44.5166 25.8492 44.917 26.1805 45.1931V45.3587C25.9251 45.4899 25.5524 45.5796 25.0554 45.6486C24.5584 45.7107 24.0959 45.7453 23.6542 45.7453C23.4678 45.6693 23.2262 45.4761 22.9294 45.1585C22.6257 44.841 22.2116 44.2957 21.6801 43.5226L18.4428 38.9394C18.2081 38.608 17.9803 38.325 17.7732 38.0904C17.5592 37.8557 17.3315 37.6555 17.0899 37.4967C16.8414 37.3449 16.5584 37.2344 16.2409 37.1654C15.9233 37.1033 15.5299 37.0688 15.0743 37.0688H13.7836V45.3035C13.4937 45.4692 13.1485 45.5796 12.7551 45.6486C12.3616 45.7107 11.9544 45.7453 11.5333 45.7453V26.5562H11.5195ZM16.6826 26.7495C16.2409 26.7495 15.7646 26.7771 15.2538 26.8323C14.743 26.8875 14.246 26.9704 13.7698 27.0808V35.5916C14.0804 35.6814 14.4393 35.7573 14.8535 35.8125C15.2676 35.8677 15.737 35.8953 16.2685 35.8953C18.0631 35.8953 19.4781 35.5295 20.5204 34.7978C21.5627 34.0662 22.0873 32.9411 22.0873 31.4225C22.0873 30.7668 21.9769 30.1455 21.756 29.5726C21.5351 28.9928 21.2038 28.5027 20.7551 28.0886C20.3065 27.6744 19.7404 27.35 19.064 27.1153C18.3875 26.8806 17.5938 26.7564 16.6757 26.7564L16.6826 26.7495Z" fill="white"/>
<path d="M57.8 68.6315C57.9795 68.3623 58.2832 68.1069 58.6973 67.8722C59.1115 67.6376 59.5256 67.5064 59.9191 67.4926C59.9743 68.0034 60.1193 68.5142 60.3539 69.0319C60.5886 69.5496 60.9269 70.012 61.3755 70.4193C61.8173 70.8265 62.3695 71.1648 63.0252 71.4271C63.681 71.6894 64.461 71.8205 65.3652 71.8205C66.6905 71.8205 67.7396 71.4823 68.5196 70.7989C69.2996 70.1156 69.6931 69.2251 69.6931 68.1207C69.6931 67.0163 69.4239 66.1949 68.8786 65.5047C68.3333 64.8144 67.3462 64.2898 65.9105 63.924L63.3496 63.2683C62.6939 63.1026 62.0796 62.9162 61.4998 62.6953C60.9199 62.4745 60.4092 62.1915 59.9743 61.8394C59.5394 61.4874 59.2012 61.0526 58.9527 60.5349C58.7111 60.0172 58.5869 59.389 58.5869 58.6436C58.5869 57.8981 58.7664 57.1802 59.1322 56.49C59.498 55.7997 60.0019 55.1854 60.6439 54.6539C61.2858 54.1224 62.0382 53.6876 62.901 53.3631C63.7638 53.0387 64.6956 52.873 65.6896 52.873C66.6836 52.873 67.5395 52.9973 68.2504 53.2527C68.9614 53.5081 69.5274 53.8187 69.9623 54.1776C70.3971 54.5435 70.7215 54.9369 70.9286 55.3649C71.1357 55.7928 71.2599 56.1656 71.2945 56.4969C71.1702 56.7523 70.9286 56.9801 70.5835 57.194C70.2384 57.4011 69.838 57.5323 69.3825 57.5875C69.3065 57.1871 69.1754 56.7937 68.9752 56.4002C68.775 56.0137 68.492 55.6548 68.1193 55.3373C67.7465 55.0197 67.291 54.7643 66.7457 54.5642C66.2004 54.364 65.5585 54.2674 64.813 54.2674C63.5774 54.2674 62.5904 54.5918 61.8449 55.2337C61.0994 55.8756 60.7267 56.7247 60.7267 57.7807C60.7267 58.3813 60.8164 58.8713 60.9959 59.2648C61.1753 59.6582 61.4307 59.9827 61.7552 60.2449C62.0796 60.5072 62.4661 60.7212 62.9148 60.8869C63.3565 61.0525 63.8466 61.1975 64.3712 61.3218L66.7664 61.9223C67.7673 62.1777 68.5956 62.4883 69.2582 62.8472C69.9209 63.213 70.4454 63.6065 70.8251 64.0482C71.2047 64.4831 71.4739 64.9594 71.6258 65.4771C71.7776 65.9948 71.8536 66.5263 71.8536 67.0716C71.8536 67.8861 71.681 68.666 71.3359 69.4115C70.9907 70.157 70.4938 70.8127 69.838 71.3856C69.1823 71.9586 68.4023 72.4141 67.4843 72.7454C66.5662 73.0837 65.5377 73.2493 64.3919 73.2493C63.2461 73.2493 62.3212 73.1044 61.5067 72.8145C60.6922 72.5246 60.0088 72.1587 59.4635 71.7101C58.9182 71.2683 58.5041 70.7713 58.228 70.226C57.945 69.6807 57.8 69.1561 57.7793 68.6453L57.8 68.6315Z" fill="white"/>
<path d="M53.2886 32.495C52.6122 27.2146 52.1635 26.7866 46.8555 26.3863C52.1359 25.7098 52.5639 25.2612 52.9642 19.9531C53.6407 25.2336 54.0893 25.6615 59.3974 26.0619C54.1169 26.7383 53.689 27.187 53.2886 32.495Z" fill="white"/>
<path d="M28.6455 76.8104C27.9208 71.5368 27.4721 71.1158 22.1641 70.7569C27.4376 70.0321 27.8586 69.5834 28.2176 64.2754C28.9423 69.5489 29.391 69.97 34.6991 70.3289C29.4255 71.0537 29.0045 71.5023 28.6455 76.8104Z" fill="white"/>
<path d="M68.8959 40.1156L82.349 33.2752L67.7915 37.2579C45.2893 43.4081 43.3289 42.5384 32.7543 21.748L25.9139 8.29492L29.8966 22.8524C32.8854 33.7929 34.2107 39.874 32.3953 44.4573C31.8362 45.541 31.1529 46.6454 30.3384 47.7636C27.5152 50.9802 22.4557 53.7895 14.3866 57.8965L0.933594 64.7369L15.491 60.7542C37.9933 54.604 39.9536 55.4737 50.5283 76.2642L57.3687 89.7103L53.3859 75.1529C47.2358 52.6506 48.1055 50.6903 68.8959 40.1156Z" fill="white"/>
<path d="M97.7266 55.0514V17.7432H106.037V55.0514H97.7266ZM103.815 43.1929V36.6562H112.94C114.155 36.6562 115.211 36.4077 116.108 35.9176C117.005 35.4275 117.696 34.7373 118.186 33.8399C118.676 32.9426 118.917 31.9072 118.917 30.72C118.917 29.5328 118.669 28.4974 118.186 27.6C117.696 26.7027 117.005 26.0125 116.108 25.5224C115.211 25.0323 114.155 24.7838 112.94 24.7838H103.815V17.7363H112.277C115.349 17.7363 118.02 18.1988 120.284 19.1306C122.548 20.0625 124.287 21.4361 125.502 23.2584C126.717 25.0806 127.325 27.3792 127.325 30.154V30.9616C127.325 33.7019 126.71 35.9728 125.475 37.7813C124.239 39.5897 122.5 40.9426 120.256 41.8331C118.006 42.7304 115.349 43.1791 112.27 43.1791H103.808L103.815 43.1929ZM120.18 55.0514L109.337 39.1342H118.462L129.816 55.0514H120.187H120.18Z" fill="white"/>
<path d="M148.312 56.0151C145.883 56.0151 143.715 55.6355 141.824 54.8762C139.933 54.117 138.338 53.0747 137.034 51.7563C135.736 50.4379 134.742 48.9262 134.065 47.2213C133.389 45.5164 133.051 43.7148 133.051 41.8235V40.657C133.051 38.7312 133.396 36.902 134.093 35.1557C134.783 33.4162 135.798 31.8839 137.137 30.5655C138.469 29.2471 140.084 28.2117 141.976 27.4456C143.867 26.6863 145.979 26.3066 148.312 26.3066C150.645 26.3066 152.847 26.6863 154.725 27.4456C156.602 28.2048 158.197 29.2471 159.515 30.5655C160.833 31.8839 161.848 33.4093 162.559 35.1557C163.27 36.8951 163.622 38.7312 163.622 40.657V41.8235C163.622 43.7148 163.284 45.5164 162.607 47.2213C161.931 48.9262 160.944 50.4379 159.639 51.7563C158.342 53.0747 156.74 54.11 154.849 54.8762C152.958 55.6355 150.776 56.0151 148.312 56.0151ZM148.312 49.1747C149.9 49.1747 151.218 48.8365 152.267 48.1601C153.317 47.4836 154.117 46.538 154.676 45.3231C155.236 44.1083 155.512 42.7554 155.512 41.2713C155.512 39.6838 155.222 38.2894 154.649 37.0884C154.076 35.8874 153.255 34.9348 152.192 34.2238C151.129 33.5129 149.838 33.1609 148.312 33.1609C146.787 33.1609 145.544 33.5129 144.461 34.2238C143.377 34.9348 142.562 35.8874 142.003 37.0884C141.444 38.2894 141.168 39.6838 141.168 41.2713C141.168 42.7554 141.437 44.1083 141.976 45.3231C142.514 46.538 143.329 47.4836 144.405 48.1601C145.489 48.8365 146.787 49.1747 148.305 49.1747H148.312Z" fill="white"/>
<path d="M183.84 56.0151C181.41 56.0151 179.243 55.6355 177.351 54.8762C175.46 54.117 173.865 53.0747 172.561 51.7563C171.263 50.4379 170.269 48.9262 169.593 47.2213C168.916 45.5164 168.578 43.7148 168.578 41.8235V40.657C168.578 38.7312 168.923 36.902 169.62 35.1557C170.311 33.4162 171.325 31.8839 172.664 30.5655C173.997 29.2471 175.612 28.2117 177.503 27.4456C179.394 26.6863 181.507 26.3066 183.84 26.3066C186.173 26.3066 188.375 26.6863 190.252 27.4456C192.13 28.2048 193.724 29.2471 195.042 30.5655C196.361 31.8839 197.375 33.4093 198.086 35.1557C198.797 36.8951 199.149 38.7312 199.149 40.657V41.8235C199.149 43.7148 198.811 45.5164 198.135 47.2213C197.458 48.9262 196.471 50.4379 195.167 51.7563C193.869 53.0747 192.268 54.11 190.376 54.8762C188.485 55.6355 186.304 56.0151 183.84 56.0151ZM183.84 49.1747C185.427 49.1747 186.746 48.8365 187.795 48.1601C188.844 47.4836 189.645 46.538 190.204 45.3231C190.763 44.1083 191.039 42.7554 191.039 41.2713C191.039 39.6838 190.749 38.2894 190.176 37.0884C189.603 35.8874 188.782 34.9348 187.719 34.2238C186.656 33.5129 185.365 33.1609 183.84 33.1609C182.314 33.1609 181.072 33.5129 179.988 34.2238C178.904 34.9348 178.09 35.8874 177.531 37.0884C176.972 38.2894 176.696 39.6838 176.696 41.2713C176.696 42.7554 176.965 44.1083 177.503 45.3231C178.041 46.538 178.856 47.4836 179.933 48.1601C181.016 48.8365 182.314 49.1747 183.833 49.1747H183.84Z" fill="white"/>
<path d="M203.156 33.4597V27.5305H219.784V33.4597H203.156ZM206.4 55.0509V26.716C206.4 23.5063 207.305 21.1249 209.113 19.5718C210.922 18.0188 213.6 17.2388 217.148 17.2388H219.888V23.3199H216.796C215.885 23.3199 215.18 23.5753 214.69 24.0792C214.2 24.5831 213.959 25.2941 213.959 26.2052V55.044H206.407L206.4 55.0509ZM221.959 33.2596V27.2751H233.362V33.2596H221.959ZM228.399 24.5417C226.88 24.5417 225.755 24.1482 225.03 23.3475C224.306 22.5537 223.94 21.546 223.94 20.3311C223.94 19.1163 224.306 18.0602 225.03 17.2664C225.755 16.4726 226.88 16.0723 228.399 16.0723C229.917 16.0723 231.084 16.4726 231.795 17.2664C232.506 18.0602 232.858 19.0818 232.858 20.3311C232.858 21.5805 232.506 22.5537 231.795 23.3475C231.084 24.1413 229.952 24.5417 228.399 24.5417ZM225.258 55.0509V27.2751H233.369V55.0509H225.258Z" fill="white"/>
<path d="M241.881 55.0527V27.2769H248.321V39.1907H247.865C247.865 36.3537 248.231 33.9861 248.956 32.0948C249.681 30.2036 250.785 28.7816 252.276 27.836C253.76 26.8903 255.569 26.4141 257.701 26.4141H258.053C261.298 26.4141 263.776 27.4702 265.481 29.5823C267.186 31.6945 268.041 34.8973 268.041 39.1907V55.0527H259.931V38.7351C259.931 37.251 259.489 36.0293 258.613 35.0836C257.736 34.138 256.549 33.6617 255.065 33.6617C253.581 33.6617 252.317 34.1449 251.393 35.1044C250.461 36.0707 249.998 37.327 249.998 38.88V55.0458H241.888L241.881 55.0527Z" fill="white"/>
<path d="M286.892 66.101C285.539 66.101 284.151 66.0527 282.736 65.9492C281.321 65.8456 280.017 65.7145 278.836 65.5419V58.7015C280.017 58.8672 281.328 59.0121 282.764 59.1295C284.2 59.2468 285.511 59.3089 286.691 59.3089C288.886 59.3089 290.667 59.0535 292.041 58.5496C293.415 58.0458 294.415 57.2727 295.057 56.2442C295.699 55.2157 296.024 53.8904 296.024 52.2683V46.7463L297.494 43.5021C297.425 45.9663 296.942 48.0785 296.051 49.8386C295.154 51.5988 293.912 52.9379 292.324 53.8697C290.736 54.8016 288.845 55.264 286.65 55.264C284.759 55.264 283.04 54.9189 281.508 54.2218C279.968 53.5315 278.664 52.5582 277.58 51.3089C276.496 50.0595 275.668 48.5962 275.095 46.9258C274.522 45.2554 274.232 43.44 274.232 41.4797V40.3131C274.232 38.3528 274.536 36.5306 275.144 34.8394C275.751 33.1483 276.628 31.6781 277.78 30.4287C278.926 29.1794 280.3 28.2061 281.887 27.5158C283.475 26.8256 285.235 26.4805 287.161 26.4805C289.39 26.4805 291.323 26.9706 292.966 27.9507C294.602 28.9309 295.899 30.3666 296.845 32.2579C297.791 34.1492 298.295 36.4339 298.364 39.0983L297.245 39.402V27.2881H303.686V51.7714C303.686 55.1812 303.078 57.9353 301.863 60.0337C300.648 62.1321 298.799 63.6644 296.314 64.6446C293.829 65.6247 290.695 66.1148 286.912 66.1148L286.892 66.101ZM289.169 48.4098C290.419 48.4098 291.551 48.1337 292.566 47.5746C293.58 47.0155 294.381 46.2148 294.975 45.1656C295.568 44.1164 295.858 42.8533 295.858 41.3623V39.8921C295.858 38.4426 295.547 37.2139 294.919 36.2199C294.291 35.226 293.477 34.4598 292.462 33.9421C291.447 33.4175 290.364 33.1552 289.218 33.1552C287.865 33.1552 286.664 33.4796 285.622 34.1216C284.572 34.7635 283.765 35.6608 283.192 36.8067C282.619 37.9525 282.329 39.3054 282.329 40.8584C282.329 42.4115 282.626 43.8058 283.219 44.9378C283.813 46.0699 284.621 46.9327 285.649 47.5194C286.678 48.113 287.851 48.4029 289.169 48.4029V48.4098Z" fill="white"/>
<path d="M322.274 55.9121C318.319 55.9121 315.227 55.0976 312.997 53.4824C310.768 51.8603 309.58 49.5825 309.449 46.642H316.649C316.787 47.5186 317.318 48.3055 318.243 48.9958C319.175 49.686 320.569 50.0311 322.426 50.0311C323.848 50.0311 325.021 49.7896 325.946 49.2926C326.878 48.8025 327.341 48.1053 327.341 47.1873C327.341 46.3797 326.989 45.724 326.278 45.2339C325.567 44.7438 324.303 44.3987 322.474 44.1985L320.293 43.9983C316.945 43.6601 314.44 42.7283 312.769 41.2097C311.099 39.6911 310.264 37.7446 310.264 35.3771C310.264 33.4167 310.754 31.7808 311.734 30.4625C312.714 29.1441 314.074 28.1501 315.813 27.4737C317.553 26.7972 319.541 26.459 321.77 26.459C325.353 26.459 328.238 27.2459 330.44 28.8128C332.635 30.3865 333.788 32.6575 333.884 35.6325H326.685C326.547 34.7213 326.077 33.9551 325.263 33.327C324.455 32.6989 323.254 32.3883 321.667 32.3883C320.417 32.3883 319.416 32.6229 318.678 33.0992C317.932 33.5755 317.56 34.2174 317.56 35.025C317.56 35.8326 317.877 36.3917 318.526 36.799C319.168 37.2062 320.217 37.4892 321.667 37.6618L323.848 37.862C327.258 38.2347 329.915 39.1804 331.807 40.6989C333.698 42.2175 334.643 44.2675 334.643 46.8353C334.643 48.692 334.14 50.3072 333.125 51.6739C332.11 53.0406 330.675 54.0898 328.818 54.8146C326.961 55.5394 324.78 55.9052 322.281 55.9052L322.274 55.9121Z" fill="white"/>
<path d="M337.57 33.2116V27.2824H357.443V33.2116H337.57ZM353.536 55.4102C350.733 55.4102 348.469 55.065 346.744 54.3748C345.018 53.6845 343.762 52.518 342.968 50.8752C342.174 49.2393 341.774 47.0167 341.774 44.2074V19.7793H349.325V44.5111C349.325 45.8295 349.67 46.8372 350.368 47.5275C351.058 48.2177 352.045 48.5698 353.336 48.5698H357.443V55.4102H353.543H353.536Z" fill="white"/>
<path d="M371.739 55.7607C369.745 55.7607 367.998 55.4087 366.493 54.6977C364.989 53.9867 363.815 52.9652 362.973 51.633C362.131 50.3008 361.703 48.6994 361.703 46.8426C361.703 44.8133 362.228 43.1498 363.277 41.8521C364.326 40.5544 365.796 39.588 367.688 38.9599C369.579 38.3318 371.76 38.0212 374.224 38.0212H380.154V42.5354H374.169C372.747 42.5354 371.663 42.8806 370.897 43.5708C370.138 44.2611 369.758 45.1998 369.758 46.387C369.758 47.5053 370.138 48.4095 370.897 49.0997C371.657 49.79 372.747 50.1351 374.169 50.1351C375.08 50.1351 375.902 49.9764 376.626 49.6519C377.351 49.3275 377.952 48.7822 378.428 48.0022C378.904 47.2222 379.173 46.1455 379.242 44.758L381.168 46.7874C380.996 48.7132 380.533 50.3353 379.774 51.6537C379.015 52.9721 377.965 53.9867 376.633 54.6977C375.301 55.4087 373.665 55.7607 371.739 55.7607ZM380.616 55.0497V46.8357H379.249V37.9176C379.249 36.4957 378.911 35.4327 378.235 34.7218C377.558 34.0108 376.475 33.6588 374.99 33.6588C374.245 33.6588 373.265 33.6726 372.05 33.7071C370.835 33.7416 369.586 33.7899 368.302 33.8589C367.018 33.928 365.852 33.997 364.802 34.0591V27.2187C365.582 27.1497 366.493 27.0807 367.543 27.0185C368.592 26.9495 369.669 26.9012 370.787 26.8667C371.905 26.8322 372.947 26.8184 373.928 26.8184C376.764 26.8184 379.153 27.2256 381.099 28.0332C383.039 28.8477 384.523 30.0694 385.531 31.7053C386.538 33.3413 387.049 35.4465 387.049 38.0143V55.0428H380.609L380.616 55.0497Z" fill="white"/>
<path d="M394.959 55.0517V27.2759H401.399V39.1896H401.247C401.247 35.269 402.082 32.2457 403.753 30.1197C405.423 27.9937 407.853 26.9238 411.028 26.9238H412.091V33.9161H410.062C407.832 33.9161 406.107 34.5166 404.892 35.7177C403.677 36.9187 403.069 38.6512 403.069 40.9153V55.0586H394.959V55.0517Z" fill="white"/>
<path d="M427.848 55.9121C423.893 55.9121 420.801 55.0976 418.571 53.4824C416.342 51.8603 415.161 49.5825 415.023 46.642H422.223C422.354 47.5186 422.892 48.3055 423.817 48.9958C424.749 49.686 426.143 50.0311 428 50.0311C429.422 50.0311 430.596 49.7896 431.521 49.2926C432.452 48.8025 432.915 48.1053 432.915 47.1873C432.915 46.3797 432.563 45.724 431.852 45.2339C431.141 44.7438 429.878 44.3987 428.049 44.1985L425.867 43.9983C422.52 43.6601 420.014 42.7283 418.344 41.2097C416.673 39.6911 415.838 37.7446 415.838 35.3771C415.838 33.4167 416.328 31.7808 417.308 30.4625C418.288 29.1441 419.648 28.1501 421.388 27.4737C423.127 26.7972 425.115 26.459 427.344 26.459C430.927 26.459 433.812 27.2459 436.014 28.8128C438.209 30.3865 439.362 32.6575 439.458 35.6325H432.259C432.121 34.7213 431.652 33.9551 430.837 33.327C430.03 32.6989 428.829 32.3883 427.241 32.3883C425.992 32.3883 424.991 32.6229 424.252 33.0992C423.507 33.5755 423.134 34.2174 423.134 35.025C423.134 35.8326 423.451 36.3917 424.1 36.799C424.742 37.2062 425.791 37.4892 427.241 37.6618L429.422 37.862C432.832 38.2347 435.489 39.1804 437.381 40.6989C439.272 42.2175 440.218 44.2675 440.218 46.8353C440.218 48.692 439.714 50.3072 438.699 51.6739C437.684 53.0406 436.249 54.0898 434.392 54.8146C432.535 55.5394 430.354 55.9052 427.855 55.9052L427.848 55.9121Z" fill="white"/>
<path d="M108.689 81.6799H107.44L105.797 77.497H99.9918L98.349 81.6799H97.0996L102.608 67.8887H103.222L108.689 81.6799ZM105.424 76.434L102.905 69.918L100.365 76.434H105.424Z" fill="white"/>
<path d="M115.722 81.6789H114.604V71.6978H115.687V73.4511C116.295 72.1051 117.454 71.4355 119.159 71.4355C120.264 71.4355 121.202 71.8014 121.975 72.54C122.735 73.2647 123.114 74.3001 123.114 75.653V81.6789H121.996V75.8532C121.996 74.8109 121.734 73.9826 121.202 73.3821C120.671 72.7815 119.946 72.4778 119.028 72.4778C118.11 72.4778 117.371 72.7815 116.716 73.3959C116.053 73.9964 115.729 74.8868 115.729 76.081V81.6789H115.722Z" fill="white"/>
<path d="M139.223 81.6799V67.8887H140.362V81.6799H139.223Z" fill="white"/>
<path d="M151.476 81.9002C150.482 81.9002 149.578 81.6517 148.771 81.1547C147.963 80.6578 147.356 79.9468 146.941 79.0288L147.853 78.4144C148.198 79.1737 148.681 79.7673 149.302 80.1884C149.916 80.6094 150.627 80.8234 151.442 80.8234C152.374 80.8234 153.133 80.568 153.72 80.0572C154.306 79.5464 154.596 78.9114 154.596 78.1521C154.596 77.6275 154.444 77.1858 154.148 76.8199C153.851 76.4541 153.395 76.1159 152.788 75.8053C152.388 75.6051 151.918 75.3911 151.373 75.1495C150.676 74.8389 150.22 74.6249 150.013 74.5145C148.446 73.7276 147.659 72.637 147.659 71.2289C147.659 70.1935 148.018 69.3445 148.743 68.675C149.461 67.9916 150.42 67.6465 151.614 67.6465C153.257 67.6465 154.555 68.3298 155.514 69.6965L154.658 70.3868C153.872 69.2686 152.864 68.7095 151.635 68.7095C150.814 68.7095 150.144 68.9373 149.627 69.3928C149.109 69.8484 148.853 70.442 148.853 71.1737C148.853 72.1193 149.406 72.8855 150.517 73.4653C150.828 73.6241 151.331 73.8657 152.029 74.1763C152.802 74.5145 153.319 74.7561 153.595 74.901C155.073 75.7086 155.818 76.7785 155.818 78.1107C155.818 79.2289 155.404 80.147 154.569 80.851C153.734 81.5482 152.712 81.8933 151.49 81.8933L151.476 81.9002Z" fill="white"/>
<path d="M170.331 67.8887H171.58L166.914 76.2131V81.6799H165.775V76.2131L161.15 67.8887H162.4L166.355 75.1501L170.331 67.8887Z" fill="white"/>
<path d="M189.914 81.9002C188.92 81.9002 188.016 81.6517 187.208 81.1547C186.4 80.6578 185.793 79.9468 185.379 79.0288L186.29 78.4144C186.635 79.1737 187.118 79.7673 187.74 80.1884C188.354 80.6094 189.065 80.8234 189.879 80.8234C190.811 80.8234 191.57 80.568 192.157 80.0572C192.744 79.5464 193.034 78.9114 193.034 78.1521C193.034 77.6275 192.882 77.1858 192.585 76.8199C192.288 76.4541 191.833 76.1159 191.225 75.8053C190.825 75.6051 190.356 75.3911 189.81 75.1495C189.113 74.8389 188.658 74.6249 188.451 74.5145C186.884 73.7276 186.097 72.637 186.097 71.2289C186.097 70.1935 186.456 69.3445 187.18 68.675C187.898 67.9916 188.858 67.6465 190.052 67.6465C191.695 67.6465 192.992 68.3298 193.952 69.6965L193.096 70.3868C192.309 69.2686 191.301 68.7095 190.073 68.7095C189.251 68.7095 188.582 68.9373 188.064 69.3928C187.546 69.8484 187.291 70.442 187.291 71.1737C187.291 72.1193 187.843 72.8855 188.954 73.4653C189.265 73.6241 189.769 73.8657 190.466 74.1763C191.239 74.5145 191.757 74.7561 192.033 74.901C193.51 75.7086 194.256 76.7785 194.256 78.1107C194.256 79.2289 193.841 80.147 193.006 80.851C192.171 81.5482 191.149 81.8933 189.928 81.8933L189.914 81.9002Z" fill="white"/>
<path d="M200.02 76.6823C200.02 75.2051 200.51 73.9627 201.497 72.9687C202.491 71.9609 203.726 71.457 205.21 71.457C206.694 71.457 207.93 71.9609 208.924 72.9687C209.904 73.9627 210.401 75.2051 210.401 76.6823C210.401 78.1594 209.911 79.4226 208.924 80.4165C207.93 81.4243 206.687 81.9282 205.21 81.9282C203.733 81.9282 202.491 81.4243 201.497 80.4165C200.517 79.4226 200.02 78.1801 200.02 76.6823ZM205.203 80.8997C206.37 80.8997 207.343 80.4925 208.116 79.6849C208.889 78.8497 209.276 77.8488 209.276 76.6823C209.276 75.5157 208.889 74.508 208.116 73.6935C207.343 72.8859 206.377 72.4786 205.203 72.4786C204.03 72.4786 203.077 72.8928 202.29 73.7142C201.517 74.5218 201.131 75.5088 201.131 76.6823C201.131 77.8557 201.517 78.8497 202.29 79.6849C203.077 80.4925 204.044 80.8997 205.203 80.8997Z" fill="white"/>
<path d="M217.972 67.5918V81.6799H216.854V67.5918H217.972Z" fill="white"/>
<path d="M229.053 81.9219C227.824 81.9219 226.83 81.5491 226.085 80.8037C225.353 80.0306 224.98 79.0228 224.98 77.7803V71.6992H226.099V77.7666C226.099 78.726 226.361 79.4853 226.892 80.0444C227.424 80.6035 228.142 80.8865 229.046 80.8865C229.95 80.8865 230.71 80.6035 231.227 80.0444C231.745 79.4853 232.014 78.7191 232.014 77.7458V71.6992H233.132V77.7803C233.132 79.0504 232.767 80.0582 232.042 80.8037C231.317 81.5491 230.316 81.9219 229.046 81.9219H229.053Z" fill="white"/>
<path d="M245.829 80.1911L246.298 81.0471C245.573 81.62 244.697 81.903 243.648 81.903C242.667 81.903 241.915 81.5993 241.411 80.9918C240.9 80.3844 240.645 79.5216 240.645 78.4172V72.6881H238.871V71.701H240.666V68.1738H241.77V71.701H245.877V72.6881H241.77V78.4517C241.77 80.0669 242.433 80.8745 243.751 80.8745C244.524 80.8745 245.221 80.6467 245.843 80.1842L245.829 80.1911Z" fill="white"/>
<path d="M252.458 70.1336C252.182 70.1336 251.954 70.0439 251.767 69.8644C251.581 69.6849 251.484 69.4572 251.484 69.1811C251.484 68.905 251.581 68.6772 251.767 68.4977C251.954 68.3182 252.182 68.2285 252.458 68.2285C252.734 68.2285 252.941 68.3182 253.127 68.4977C253.314 68.6772 253.41 68.905 253.41 69.1811C253.41 69.4572 253.314 69.6849 253.127 69.8644C252.941 70.0439 252.713 70.1336 252.458 70.1336ZM252.975 71.7005V81.6816H251.857V71.7005H252.975Z" fill="white"/>
<path d="M259.523 76.6823C259.523 75.2051 260.014 73.9627 261.001 72.9687C261.995 71.9609 263.23 71.457 264.714 71.457C266.198 71.457 267.434 71.9609 268.428 72.9687C269.408 73.9627 269.905 75.2051 269.905 76.6823C269.905 78.1594 269.415 79.4226 268.428 80.4165C267.434 81.4243 266.191 81.9282 264.714 81.9282C263.237 81.9282 261.995 81.4243 261.001 80.4165C260.02 79.4226 259.523 78.1801 259.523 76.6823ZM264.714 80.8997C265.881 80.8997 266.854 80.4925 267.627 79.6849C268.4 78.8497 268.787 77.8488 268.787 76.6823C268.787 75.5157 268.4 74.508 267.627 73.6935C266.854 72.8859 265.888 72.4786 264.714 72.4786C263.541 72.4786 262.588 72.8928 261.801 73.7142C261.028 74.5218 260.642 75.5088 260.642 76.6823C260.642 77.8557 261.028 78.8497 261.801 79.6849C262.588 80.4925 263.555 80.8997 264.714 80.8997Z" fill="white"/>
<path d="M277.474 81.6789H276.355V71.6978H277.439V73.4511C278.047 72.1051 279.206 71.4355 280.911 71.4355C282.016 71.4355 282.954 71.8014 283.727 72.54C284.487 73.2647 284.866 74.3001 284.866 75.653V81.6789H283.748V75.8532C283.748 74.8109 283.486 73.9826 282.954 73.3821C282.423 72.7815 281.698 72.4778 280.78 72.4778C279.862 72.4778 279.123 72.7815 278.468 73.3959C277.805 73.9964 277.481 74.8868 277.481 76.081V81.6789H277.474Z" fill="white"/>
<path d="M294.48 81.9006C293.721 81.9006 293.031 81.7142 292.41 81.3484C291.788 80.9825 291.305 80.4373 290.953 79.7125L291.85 79.1534C292.437 80.313 293.314 80.8859 294.48 80.8859C295.143 80.8859 295.681 80.6995 296.116 80.3337C296.544 79.9679 296.758 79.5192 296.758 79.0015C296.758 78.3527 296.337 77.8143 295.488 77.3794C295.24 77.2552 294.839 77.0895 294.294 76.8755C293.659 76.6132 293.259 76.4338 293.1 76.3371C292.044 75.8057 291.512 75.0257 291.512 74.0041C291.512 73.231 291.795 72.596 292.354 72.099C292.913 71.602 293.652 71.3535 294.577 71.3535C295.944 71.3535 296.945 71.8781 297.58 72.9204L296.793 73.5554C296.323 72.7478 295.571 72.3406 294.556 72.3406C293.949 72.3406 293.466 72.4924 293.121 72.7892C292.775 73.0861 292.596 73.4795 292.596 73.9627C292.596 74.6253 292.955 75.1292 293.68 75.4743L294.798 75.9575C295.495 76.2474 295.937 76.4338 296.123 76.5373C297.29 77.0964 297.876 77.8902 297.876 78.9256C297.876 79.7608 297.559 80.4649 296.924 81.0378C296.303 81.6107 295.488 81.8937 294.48 81.8937V81.9006Z" fill="white"/>
<path d="M317.916 81.6799H313.326V67.8887H318.068C320.022 67.8887 321.561 68.5099 322.693 69.7524C323.839 71.0086 324.412 72.6928 324.412 74.8119C324.412 76.931 323.832 78.6014 322.679 79.8301C321.52 81.0587 319.939 81.6799 317.923 81.6799H317.916ZM314.465 68.9724V80.5962H317.916C319.587 80.5962 320.884 80.0716 321.816 79.0294C322.762 77.9733 323.231 76.5583 323.231 74.7912C323.231 73.0242 322.762 71.6229 321.83 70.5531C320.919 69.497 319.656 68.9655 318.027 68.9655H314.465V68.9724Z" fill="white"/>
<path d="M339.988 76.2466C339.988 76.3847 339.967 76.6746 339.933 77.1232H331.533C331.622 78.2553 332.016 79.1595 332.727 79.8359C333.438 80.5124 334.39 80.8506 335.584 80.8506C336.233 80.8506 336.889 80.7402 337.565 80.5262C338.235 80.3122 338.794 80.0223 339.243 79.6565L339.767 80.5124C339.256 80.9127 338.628 81.2371 337.876 81.4994C337.124 81.7617 336.357 81.8929 335.571 81.8929C333.852 81.8929 332.561 81.3821 331.691 80.3536C330.822 79.3252 330.387 78.0896 330.387 76.647C330.387 75.2043 330.842 73.8998 331.746 72.9127C332.658 71.9325 333.852 71.4355 335.35 71.4355C336.696 71.4355 337.8 71.8704 338.67 72.7401C339.553 73.596 339.995 74.7626 339.995 76.2259L339.988 76.2466ZM335.343 72.4778C334.3 72.4778 333.431 72.8092 332.74 73.4649C332.05 74.1275 331.65 75.0042 331.539 76.0948H338.835C338.822 74.9973 338.497 74.1206 337.855 73.4649C337.213 72.8092 336.378 72.4778 335.343 72.4778Z" fill="white"/>
<path d="M347.53 81.6798H346.412V71.6987H347.475V73.307C348.007 72.0646 348.973 71.4434 350.367 71.4434C350.754 71.4434 351.161 71.4986 351.596 71.609L351.465 72.672C351.12 72.5616 350.761 72.5063 350.402 72.5063C349.504 72.5063 348.8 72.8239 348.297 73.4658C347.786 74.1077 347.53 74.9498 347.53 75.9921V81.6867V81.6798Z" fill="white"/>
<path d="M357.874 70.1336C357.598 70.1336 357.37 70.0439 357.183 69.8644C356.997 69.6849 356.9 69.4572 356.9 69.1811C356.9 68.905 356.997 68.6772 357.183 68.4977C357.37 68.3182 357.598 68.2285 357.874 68.2285C358.15 68.2285 358.357 68.3182 358.543 68.4977C358.73 68.6772 358.826 68.905 358.826 69.1811C358.826 69.4572 358.73 69.6849 358.543 69.8644C358.357 70.0439 358.129 70.1336 357.874 70.1336ZM358.391 71.7005V81.6816H357.273V71.7005H358.391Z" fill="white"/>
<path d="M369.146 79.9477L372.652 71.6992H373.881L369.477 81.6665H368.787L364.383 71.6992H365.618L369.146 79.9477Z" fill="white"/>
<path d="M388.008 73.6184V71.6995H389.091V81.6806H388.008V79.741C387.587 80.4243 387.028 80.9627 386.337 81.3493C385.647 81.7358 384.895 81.9291 384.073 81.9291C382.665 81.9291 381.485 81.4252 380.525 80.4174C379.58 79.3959 379.104 78.1396 379.104 76.6486C379.104 75.1577 379.573 73.9498 380.505 72.9558C381.464 71.9618 382.651 71.4648 384.066 71.4648C384.902 71.4648 385.661 71.6512 386.344 72.0308C387.028 72.4105 387.58 72.942 388.008 73.6253V73.6184ZM384.122 80.9006C385.281 80.9006 386.227 80.4865 386.979 79.672C387.725 78.8506 388.097 77.8428 388.097 76.6486C388.097 75.4545 387.725 74.5089 386.979 73.7013C386.234 72.8937 385.281 72.4864 384.122 72.4864C382.962 72.4864 382.037 72.8937 381.305 73.7013C380.581 74.495 380.222 75.4959 380.222 76.6901C380.222 77.8842 380.581 78.8989 381.305 79.6927C382.037 80.5003 382.976 80.9075 384.122 80.9075V80.9006Z" fill="white"/>
<path d="M401.93 80.1911L402.4 81.0471C401.682 81.62 400.798 81.903 399.749 81.903C398.769 81.903 398.017 81.5993 397.513 80.9918C397.002 80.3844 396.747 79.5216 396.747 78.4172V72.6881H394.973V71.701H396.767V68.1738H397.872V71.701H401.979V72.6881H397.872V78.4517C397.872 80.0669 398.527 80.8745 399.853 80.8745C400.626 80.8745 401.323 80.6467 401.944 80.1842L401.93 80.1911Z" fill="white"/>
<path d="M408.551 70.1336C408.275 70.1336 408.047 70.0439 407.861 69.8644C407.675 69.6849 407.578 69.4572 407.578 69.1811C407.578 68.905 407.675 68.6772 407.861 68.4977C408.047 68.3182 408.275 68.2285 408.551 68.2285C408.827 68.2285 409.035 68.3182 409.221 68.4977C409.407 68.6772 409.504 68.905 409.504 69.1811C409.504 69.4572 409.407 69.6849 409.221 69.8644C409.035 70.0439 408.814 70.1336 408.551 70.1336ZM409.076 71.7005V81.6816H407.958V71.7005H409.076Z" fill="white"/>
<path d="M419.821 79.9477L423.328 71.6992H424.556L420.153 81.6665H419.462L415.059 71.6992H416.294L419.821 79.9477Z" fill="white"/>
<path d="M439.414 76.2466C439.414 76.3847 439.393 76.6746 439.359 77.1232H430.958C431.048 78.2553 431.442 79.1595 432.152 79.8359C432.863 80.5124 433.816 80.8506 435.01 80.8506C435.659 80.8506 436.315 80.7402 436.991 80.5262C437.661 80.3122 438.22 80.0223 438.668 79.6565L439.193 80.5124C438.682 80.9127 438.054 81.2371 437.302 81.4994C436.549 81.7617 435.783 81.8929 434.996 81.8929C433.278 81.8929 431.987 81.3821 431.117 80.3536C430.247 79.3252 429.812 78.0896 429.812 76.647C429.812 75.2043 430.268 73.8998 431.172 72.9127C432.083 71.9325 433.284 71.4355 434.775 71.4355C436.121 71.4355 437.226 71.8704 438.096 72.7401C438.979 73.596 439.421 74.7626 439.421 76.2259L439.414 76.2466ZM434.769 72.4778C433.726 72.4778 432.857 72.8092 432.166 73.4649C431.476 74.1275 431.076 75.0042 430.965 76.0948H438.261C438.247 74.9973 437.923 74.1206 437.281 73.4649C436.639 72.8092 435.804 72.4778 434.769 72.4778Z" fill="white"/>
</g>
<defs>
<clipPath id="clip0_160_22">
<rect width="441.969" height="96.9231" fill="white" transform="translate(0.935547 0.539062)"/>
</clipPath>
</defs>
</svg>
