<svg width="346" height="118" viewBox="0 0 346 118" fill="none" xmlns="http://www.w3.org/2000/svg">
<path d="M65.8278 117.84C45.9353 117.84 26.0464 117.84 6.15383 117.84C4.1793 117.84 3.32846 117.829 1.35392 117.847C0.915937 117.85 0.736434 117.739 0.750795 117.265C0.783105 116.138 0.761564 115.007 0.761564 113.88C0.761564 113.14 0.761564 113.137 1.48317 113.137C6.63131 113.137 10.6486 113.137 15.7967 113.137C28.4984 113.137 41.2 113.137 53.9016 113.137C74.0921 113.137 94.2826 113.14 114.473 113.14C120.117 113.14 123.509 113.137 129.153 113.137C129.849 113.137 129.849 113.137 129.849 113.855C129.849 114.935 129.849 116.012 129.849 117.093C129.849 117.843 129.849 117.843 129.074 117.843C122.4 117.843 117.981 117.843 111.307 117.843C101.825 117.843 92.344 117.843 82.8626 117.843C77.1868 117.84 71.5073 117.84 65.8278 117.84Z" fill="white"/>
<path d="M55.3261 0.152344C55.9975 0.665722 56.6186 1.13243 57.2325 1.60632C63.4827 6.41341 69.7295 11.2205 75.9797 16.0276C82.3988 20.9675 88.8178 25.9074 95.244 30.8366C95.5348 31.0592 95.664 31.2925 95.6605 31.6659C95.6425 33.443 95.6533 35.2201 95.6533 36.9971C95.6533 37.1407 95.6353 37.2843 95.621 37.5572C82.1582 28.0184 68.7745 18.537 55.3297 9.00902C48.6271 18.5083 41.9496 27.9753 35.2685 37.4459C35.2326 37.4351 35.1967 37.4244 35.1608 37.4136C35.1464 37.2772 35.1213 37.1407 35.1213 37.0043C35.1177 35.2129 35.1105 33.4179 35.132 31.6264C35.1356 31.3607 35.2182 31.0628 35.3618 30.8402C39.0775 25.0997 42.8076 19.3663 46.5305 13.633C49.3343 9.31777 52.1346 5.00252 54.9384 0.690853C55.0461 0.5293 55.1682 0.374928 55.3261 0.152344Z" fill="white"/>
<path d="M35.1585 46.6109C35.1477 46.4709 35.1226 46.3309 35.1226 46.1909C35.119 44.4138 35.1082 42.6367 35.1333 40.8596C35.1369 40.5868 35.241 40.2673 35.4026 40.0447C40.8272 32.6384 46.2661 25.2429 51.6979 17.8473C52.7677 16.3898 53.8376 14.9286 54.9074 13.471C55.0223 13.3131 55.1515 13.1587 55.3023 12.9648C55.4746 13.0654 55.629 13.1479 55.7762 13.2485C62.4716 17.8042 69.1671 22.3672 75.8626 26.923C82.1344 31.1916 88.3991 35.4673 94.6924 39.7036C95.3997 40.1775 95.73 40.6442 95.6797 41.5274C95.5935 43.0316 95.6582 44.5466 95.6582 46.058C95.6582 46.2519 95.6582 46.4458 95.6582 46.794C82.1524 38.422 68.765 30.1217 55.3346 21.7964C48.6356 30.1038 41.9545 38.3861 35.2734 46.6683C35.2339 46.6432 35.198 46.6288 35.1585 46.6109Z" fill="white"/>
<path d="M35.1774 65.1732C35.1558 64.904 35.1343 64.7604 35.1343 64.6203C35.1307 62.8289 35.1199 61.0339 35.1451 59.2424C35.1487 58.9911 35.2707 58.6824 35.4466 58.5065C37.7407 56.1765 40.0527 53.8645 42.3575 51.5453C44.2171 49.6749 46.0696 47.8009 47.9257 45.9269C50.2843 43.5503 52.6502 41.1772 54.9981 38.7899C55.2781 38.5062 55.5043 38.5745 55.7879 38.7181C58.2938 39.9782 60.7996 41.2347 63.3055 42.4948C73.0453 47.3952 82.7816 52.2957 92.5214 57.1961C93.4404 57.6592 94.3631 58.1116 95.2714 58.5998C95.4401 58.6932 95.6483 58.9193 95.6519 59.0881C95.6771 61.0123 95.6663 62.9402 95.6627 64.8645C95.6627 64.9291 95.6376 64.9937 95.6124 65.1194C95.3504 65.0224 95.1062 64.9399 94.8729 64.8357C84.5874 60.28 74.3018 55.7242 64.0163 51.1684C61.2843 49.9585 58.5487 48.7595 55.8274 47.5352C55.4433 47.3629 55.2207 47.4311 54.9191 47.6968C50.13 51.9546 45.3301 56.1981 40.5337 60.4451C38.9936 61.8093 37.4535 63.1771 35.9133 64.5414C35.7015 64.728 35.4861 64.9075 35.1774 65.1732Z" fill="white"/>
<path d="M95.6646 83.5818C94.4296 83.2587 93.2915 82.9643 92.1571 82.6628C86.8007 81.2411 81.4479 79.8159 76.0952 78.3942C69.3782 76.6064 62.6612 74.8257 55.9478 73.0307C55.5349 72.9194 55.1974 72.9517 54.8169 73.1563C48.4768 76.5381 42.1296 79.902 35.7824 83.2731C35.6101 83.3628 35.4341 83.449 35.19 83.5675C35.1649 83.3628 35.1362 83.2264 35.1362 83.09C35.1326 81.2806 35.1398 79.4712 35.129 77.6618C35.1254 77.3423 35.2331 77.1484 35.5024 76.9725C41.9716 72.7614 48.4373 68.5467 54.8959 64.3212C55.2297 64.1022 55.5098 64.0914 55.8688 64.2099C64.1941 66.9347 72.5195 69.6524 80.8484 72.3701C85.5945 73.921 90.3441 75.4719 95.0938 77.0048C95.5246 77.1449 95.6933 77.3279 95.6825 77.8054C95.6502 79.5143 95.6682 81.2268 95.6682 82.9356C95.6646 83.1079 95.6646 83.2874 95.6646 83.5818Z" fill="white"/>
<path d="M35.1287 55.9802C35.1287 54.2139 35.1897 52.6019 35.1072 50.9972C35.0533 49.9884 35.3908 49.2596 36.0298 48.5092C41.2605 42.3667 46.4553 36.1953 51.6609 30.0348C52.7523 28.7424 53.858 27.4607 54.9315 26.1504C55.2223 25.7949 55.4269 25.7554 55.8254 25.996C61.2715 29.2414 66.7284 32.4653 72.1817 35.6963C75.6784 37.7678 79.1823 39.8321 82.679 41.9035C86.8507 44.3699 91.0151 46.8435 95.1904 49.3026C95.5278 49.5001 95.6786 49.7155 95.675 50.1248C95.6499 51.866 95.6643 53.6107 95.6643 55.3555C95.6643 55.517 95.6499 55.6822 95.6391 55.9407C95.4166 55.833 95.2442 55.7612 95.0791 55.675C84.3089 49.9524 73.5387 44.2299 62.7686 38.5037C60.4386 37.2652 58.1051 36.0338 55.7859 34.7809C55.4484 34.6014 55.2582 34.6337 54.9925 34.9173C50.5121 39.7028 46.0173 44.474 41.5262 49.2488C39.5373 51.3633 37.5448 53.4815 35.5559 55.596C35.4554 55.6965 35.3441 55.7863 35.1287 55.9802Z" fill="white"/>
<path d="M35.1604 101.973C35.146 101.758 35.1244 101.596 35.1244 101.435C35.1209 99.6575 35.1316 97.8804 35.1173 96.1033C35.1137 95.7443 35.2322 95.5792 35.5804 95.475C42.021 93.5651 48.4543 91.6301 54.8985 89.7381C55.3616 89.6017 55.9145 89.6879 56.4135 89.7597C60.0897 90.2946 63.7624 90.8546 67.435 91.4039C71.8149 92.0573 76.1947 92.7107 80.5746 93.3641C84.4626 93.9421 88.3507 94.5201 92.2387 95.0981C93.2224 95.2453 94.2061 95.3996 95.1933 95.5325C95.5272 95.5792 95.6708 95.7012 95.6672 96.0674C95.6493 97.8768 95.6493 99.6862 95.6636 101.496C95.6672 101.905 95.5344 101.991 95.1359 101.955C91.2694 101.6 87.4029 101.262 83.5328 100.921C78.7401 100.498 73.9509 100.067 69.1582 99.6431C65.2091 99.2949 61.2457 99.0436 57.311 98.5769C55.1678 98.322 53.1609 98.8318 51.1182 99.1836C45.97 100.067 40.8291 100.997 35.6845 101.908C35.5409 101.934 35.3901 101.944 35.1604 101.973Z" fill="white"/>
<path d="M95.6313 74.37C94.3856 73.9321 93.2296 73.53 92.0772 73.1207C83.8344 70.202 75.5952 67.2797 67.3524 64.361C63.5505 63.0147 59.7487 61.6756 55.954 60.3114C55.4909 60.1426 55.1642 60.2073 54.7728 60.4837C48.4005 65.0143 42.021 69.5306 35.6414 74.0505C35.5086 74.1439 35.3686 74.2228 35.1532 74.3593C35.1424 74.108 35.1244 73.9356 35.1244 73.7633C35.1244 72.0186 35.1352 70.2774 35.1173 68.5326C35.1137 68.1628 35.2321 67.9187 35.5158 67.6854C41.0409 63.1116 46.5588 58.5307 52.0803 53.9534C53.0388 53.16 54.0046 52.3702 54.9488 51.5624C55.2108 51.3398 55.4334 51.3039 55.7529 51.4367C65.0081 55.2853 74.2669 59.1231 83.5256 62.9644C87.3885 64.5656 91.2479 66.1775 95.1179 67.7607C95.5452 67.9367 95.678 68.1557 95.6708 68.608C95.6457 70.3348 95.66 72.0616 95.66 73.7885C95.6564 73.9536 95.6421 74.1151 95.6313 74.37Z" fill="white"/>
<path d="M35.1532 92.7648C35.1424 92.5027 35.128 92.3376 35.128 92.176C35.128 90.4313 35.1388 88.6901 35.1173 86.9453C35.1137 86.5576 35.2357 86.3529 35.5912 86.1842C42.0245 83.1398 48.4507 80.0775 54.8841 77.0367C55.157 76.9075 55.5339 76.8788 55.8283 76.9506C62.9007 78.6128 69.966 80.2965 77.0312 81.9767C82.9835 83.3911 88.9394 84.802 94.8918 86.2237C95.7785 86.4355 95.6493 86.3099 95.6529 87.1858C95.66 88.8121 95.6564 90.4384 95.6564 92.0683C95.6564 92.2801 95.6349 92.4884 95.6241 92.7612C94.8846 92.6391 94.2025 92.535 93.5204 92.413C86.8572 91.2318 80.1976 90.0471 73.5345 88.8624C67.5894 87.8069 61.6442 86.755 55.6991 85.7139C55.437 85.6672 55.1354 85.7175 54.8805 85.8073C48.5764 88.0295 42.2758 90.2661 35.9717 92.4955C35.7312 92.5925 35.4799 92.6607 35.1532 92.7648Z" fill="white"/>
<path d="M65.4182 111.181C55.603 111.181 45.7914 111.181 35.9762 111.181C35.811 111.181 35.6243 111.224 35.4843 111.163C35.3443 111.102 35.1504 110.933 35.1469 110.811C35.1253 108.933 35.1361 107.059 35.1289 105.182C35.1289 104.913 35.2402 104.794 35.5023 104.762C37.7245 104.496 39.9504 104.227 42.1726 103.958C44.2477 103.706 46.3227 103.459 48.3978 103.207C50.6703 102.931 52.9356 102.575 55.2153 102.41C56.5436 102.313 57.8971 102.518 59.2397 102.601C61.742 102.751 64.2407 102.906 66.743 103.064C70.3187 103.29 73.898 103.523 77.4737 103.739C79.9723 103.889 82.4746 104.015 84.9733 104.162C88.3874 104.36 91.798 104.572 95.2121 104.769C95.5388 104.787 95.6753 104.902 95.6717 105.25C95.6573 107.077 95.6537 108.905 95.6753 110.728C95.6824 111.192 95.4311 111.181 95.108 111.181C92.1355 111.177 89.1629 111.177 86.1903 111.177C79.2687 111.181 72.3435 111.181 65.4182 111.181Z" fill="white"/>
<path d="M98.1889 58.6279C98.1889 57.2027 98.1817 55.7774 98.1997 54.3521C98.1997 54.2157 98.3361 54.0578 98.4474 53.9465C101.154 51.1857 103.868 48.4285 106.575 45.6678C109.318 42.8711 112.054 40.0709 114.793 37.2742C116.383 35.6515 117.981 34.0324 119.571 32.4061C119.675 32.302 119.744 32.162 119.884 31.9609C120.034 32.2015 120.117 32.3128 120.178 32.4348C121.819 35.77 123.459 39.1052 125.096 42.4439C125.154 42.5624 125.226 42.6916 125.226 42.8173C125.233 44.5585 125.233 46.2996 125.233 48.0408C125.19 48.0588 125.15 48.0731 125.107 48.0911C123.398 44.8887 121.689 41.6864 119.945 38.4123C112.707 45.2047 105.513 51.954 98.3217 58.7033C98.2787 58.6746 98.232 58.653 98.1889 58.6279Z" fill="white"/>
<path d="M5.62422 58.4552C5.62422 58.1967 5.62422 57.9418 5.62422 57.6833C5.62422 56.6027 5.60268 55.5257 5.63499 54.4487C5.64217 54.1974 5.75705 53.8886 5.92938 53.7127C9.35788 50.1944 12.7972 46.6905 16.24 43.1831C19.7978 39.5607 23.3519 35.9347 26.9097 32.3124C27.0461 32.1723 27.1933 32.0431 27.38 31.8672C27.4913 32.0575 27.5774 32.1903 27.6492 32.3339C29.2253 35.5362 30.8085 38.7314 32.3558 41.9445C32.5568 42.3573 32.6538 42.8564 32.6645 43.3195C32.704 44.6801 32.6789 46.0407 32.6789 47.4014C32.6789 47.5557 32.661 47.7137 32.5317 47.904C30.8229 44.6981 29.1104 41.4921 27.3656 38.2216C20.1245 45.0212 12.9408 51.7669 5.75346 58.5126C5.71038 58.4947 5.6673 58.4767 5.62422 58.4552Z" fill="white"/>
<path d="M5.62037 65.0234C5.62037 63.6161 5.60601 62.2052 5.63832 60.7979C5.64191 60.6112 5.83936 60.3958 6.00091 60.2486C9.92844 56.698 13.8631 53.1582 17.7943 49.6112C20.8638 46.8433 23.9297 44.0754 26.9956 41.3074C27.1033 41.2105 27.2218 41.1279 27.3761 41.0059C27.4838 41.171 27.5772 41.3038 27.6562 41.4403C29.2717 44.3554 30.8908 47.2741 32.4991 50.1964C32.5925 50.3651 32.6607 50.5662 32.6643 50.7565C32.6786 52.3505 32.6751 53.9444 32.6715 55.5384C32.6715 55.6138 32.6463 55.6928 32.5243 55.8149C30.8226 53.0254 29.1209 50.2323 27.3654 47.3495C20.1386 53.2839 12.9441 59.1895 5.74961 65.0952C5.70653 65.0736 5.66345 65.0485 5.62037 65.0234Z" fill="white"/>
<path d="M119.98 41.166C120.436 41.981 120.859 42.7313 121.276 43.4852C122.493 45.6751 123.72 47.8615 124.912 50.0658C125.113 50.4391 125.221 50.9059 125.232 51.3295C125.271 52.6901 125.246 54.0507 125.246 55.415C125.246 55.5909 125.246 55.7632 125.246 55.9391C125.2 55.9535 125.153 55.9678 125.106 55.9822C123.405 53.1891 121.699 50.3997 119.951 47.5312C112.717 53.4692 105.526 59.3748 98.267 65.3343C98.2311 65.1333 98.1952 65.0148 98.1952 64.8963C98.1916 63.6506 98.1736 62.4048 98.2095 61.1591C98.2167 60.9185 98.3818 60.6241 98.5649 60.4554C103.44 56.0432 108.323 51.6454 113.209 47.244C115.331 45.3341 117.452 43.4206 119.574 41.5107C119.678 41.4101 119.793 41.3204 119.98 41.166Z" fill="white"/>
<path d="M32.6002 71.7211C32.1406 71.1826 31.7529 70.7302 31.3688 70.2779C30.1517 68.849 28.9275 67.4309 27.732 65.9877C27.4628 65.661 27.2689 65.6359 26.9135 65.8477C22.0705 68.7054 17.2168 71.5487 12.363 74.3921C10.3167 75.5911 8.27033 76.7938 6.22399 77.9929C6.06962 78.0826 5.90807 78.1616 5.6783 78.2801C5.65317 78.0827 5.62445 77.9462 5.62445 77.8098C5.62086 76.5964 5.63163 75.3865 5.61727 74.1731C5.61368 73.8536 5.72497 73.6597 5.99064 73.4838C13.0092 68.8131 20.0206 64.1353 27.0284 59.4502C27.2869 59.2779 27.4412 59.2671 27.6387 59.5328C29.2542 61.7048 30.8805 63.8624 32.4961 66.0344C32.5966 66.1708 32.6684 66.3647 32.672 66.5334C32.6827 68.1597 32.6791 69.786 32.6756 71.4123C32.672 71.4769 32.6432 71.538 32.6002 71.7211Z" fill="white"/>
<path d="M27.4018 50.123C27.8828 50.8698 28.3388 51.577 28.7911 52.2879C30.0153 54.2049 31.2396 56.1184 32.453 58.0427C32.5715 58.2294 32.6684 58.4664 32.6684 58.6818C32.6863 60.2578 32.6792 61.8374 32.6756 63.4135C32.6756 63.4924 32.6576 63.5714 32.532 63.7186C30.8231 61.3169 29.1106 58.9151 27.3695 56.4667C20.1427 61.5538 12.9446 66.6158 5.66038 71.7424C5.64243 71.4624 5.62089 71.308 5.62089 71.15C5.6173 69.9725 5.62806 68.7914 5.61729 67.6138C5.6137 67.3051 5.69987 67.0969 5.95117 66.8994C12.9697 61.4066 19.9811 55.903 26.9961 50.4031C27.1002 50.3205 27.2151 50.2523 27.4018 50.123Z" fill="white"/>
<path d="M119.944 56.6438C112.689 61.7488 105.502 66.8072 98.2569 71.9051C98.2174 71.7508 98.1851 71.6754 98.1851 71.6036C98.1815 70.2932 98.1707 68.9792 98.1958 67.6689C98.1994 67.475 98.3502 67.2309 98.5118 67.1052C101.757 64.5455 105.013 62.0037 108.266 59.4512C111.974 56.5433 115.683 53.6317 119.392 50.7202C119.56 50.5873 119.733 50.4653 119.962 50.293C120.217 50.6807 120.454 51.0325 120.68 51.3879C122.109 53.6281 123.542 55.8612 124.949 58.1121C125.114 58.3742 125.215 58.7224 125.222 59.0348C125.251 60.4636 125.236 61.8889 125.236 63.3177C125.236 63.49 125.236 63.6623 125.236 63.8347C125.19 63.849 125.139 63.8634 125.093 63.8778C123.391 61.4832 121.686 59.0886 119.944 56.6438Z" fill="white"/>
<path d="M98.1916 78.4554C98.1916 76.9511 98.1736 75.5438 98.2131 74.1365C98.2167 73.9534 98.4752 73.738 98.6655 73.6124C100.758 72.2015 102.859 70.8085 104.955 69.4084C109.802 66.1774 114.648 62.9463 119.495 59.7188C119.631 59.6291 119.771 59.5465 119.955 59.4316C120.08 59.5788 120.202 59.7081 120.306 59.8481C121.872 61.9303 123.433 64.0161 124.991 66.1056C125.106 66.2563 125.228 66.4538 125.228 66.6297C125.246 68.3386 125.239 70.0439 125.239 71.8963C125.045 71.7025 124.93 71.6055 124.833 71.4942C123.336 69.7423 121.829 67.9939 120.349 66.224C120.062 65.883 119.847 65.8076 119.445 66.0481C116.81 67.6206 114.16 69.1679 111.511 70.7224C107.203 73.2498 102.895 75.7736 98.5865 78.2938C98.4931 78.3477 98.3854 78.3764 98.1916 78.4554Z" fill="white"/>
<path d="M32.6011 79.5773C32.3391 79.3439 32.1201 79.1572 31.9083 78.9598C30.5045 77.6422 29.0972 76.3319 27.7043 74.9999C27.4566 74.763 27.2771 74.7415 26.9719 74.8851C21.734 77.355 16.4925 79.8106 11.2511 82.2698C9.58527 83.0524 7.91948 83.8351 6.25011 84.6141C6.07419 84.6967 5.8911 84.7613 5.62544 84.8654C5.62544 84.2587 5.62544 83.7346 5.62544 83.2068C5.62544 82.4278 5.64338 81.6451 5.61825 80.8661C5.60389 80.4676 5.73314 80.2414 6.09214 80.044C9.58886 78.1377 13.0748 76.217 16.5643 74.2999C20.0108 72.4079 23.4573 70.5195 26.8965 68.6168C27.2591 68.4158 27.4745 68.4086 27.7725 68.7425C29.3055 70.4657 30.8671 72.1638 32.4109 73.8763C32.5365 74.0127 32.6658 74.2137 32.6658 74.386C32.6837 76.0303 32.6765 77.6709 32.6729 79.3152C32.6729 79.3762 32.6406 79.4337 32.6011 79.5773Z" fill="white"/>
<path d="M32.6793 87.5433C31.8249 86.9474 31.1069 86.4519 30.3925 85.9493C29.5488 85.357 28.698 84.779 27.8758 84.1651C27.5348 83.9102 27.2368 83.8635 26.8275 84.0107C21.7943 85.7985 16.7538 87.5684 11.7134 89.3419C9.88245 89.9846 8.05152 90.6272 6.217 91.2698C6.04827 91.3272 5.87595 91.3739 5.66054 91.4385C5.64618 91.2375 5.62464 91.0939 5.62464 90.9467C5.62464 89.7692 5.64618 88.588 5.61746 87.4105C5.61028 87.012 5.74311 86.8253 6.10571 86.6709C9.21829 85.339 12.3237 83.9891 15.4291 82.6465C19.2669 80.9879 23.1082 79.3328 26.9424 77.667C27.2224 77.545 27.4307 77.4983 27.6999 77.7353C29.2185 79.0744 30.7551 80.3955 32.2952 81.7095C32.5716 81.9428 32.6937 82.1869 32.6901 82.5603C32.6686 83.9891 32.6829 85.4144 32.6829 86.8432C32.6793 87.0192 32.6793 87.1987 32.6793 87.5433Z" fill="white"/>
<path d="M98.1895 91.6299C98.1895 90.1221 98.1787 88.7148 98.2074 87.3075C98.211 87.1639 98.448 86.9736 98.6167 86.8982C102.02 85.412 105.431 83.9364 108.841 82.4609C112.374 80.9351 115.91 79.413 119.435 77.8728C119.827 77.7005 120.082 77.74 120.401 78.02C121.905 79.3483 123.438 80.6479 124.95 81.9691C125.086 82.0876 125.226 82.2886 125.226 82.4537C125.244 84.08 125.237 85.7063 125.23 87.3326C125.23 87.408 125.198 87.4834 125.162 87.6486C124.544 87.2213 123.977 86.8372 123.413 86.4423C122.394 85.7279 121.374 85.017 120.365 84.2847C120.082 84.08 119.83 84.0334 119.493 84.1554C112.596 86.5931 105.696 89.0164 98.7962 91.4432C98.6275 91.5079 98.4551 91.551 98.1895 91.6299Z" fill="white"/>
<path d="M125.213 79.8129C124.524 79.1703 123.942 78.6282 123.361 78.0861C122.33 77.1203 121.293 76.1654 120.28 75.1853C120.036 74.9519 119.85 74.9268 119.544 75.0704C113.872 77.745 108.193 80.4052 102.513 83.0691C101.253 83.6614 99.9894 84.2538 98.7257 84.8426C98.5821 84.9108 98.4277 84.961 98.1836 85.0544C98.1836 84.6523 98.1836 84.3292 98.1836 84.0025C98.1836 83.0224 98.2051 82.0423 98.1728 81.0658C98.1584 80.6386 98.3092 80.416 98.679 80.215C101.892 78.4774 105.094 76.729 108.293 74.9699C112.016 72.9236 115.735 70.8736 119.444 68.8094C119.832 68.5939 120.054 68.6011 120.359 68.9458C121.86 70.6331 123.397 72.2845 124.897 73.9719C125.084 74.1837 125.213 74.5211 125.22 74.8012C125.253 76.2623 125.238 77.7235 125.235 79.1846C125.242 79.3462 125.227 79.5041 125.213 79.8129Z" fill="white"/>
<path d="M125.238 103.478C124.218 103.241 123.256 103.104 122.355 102.788C120.406 102.106 118.467 102.397 116.507 102.645C114.335 102.918 112.159 103.144 109.987 103.399C107.352 103.707 104.721 104.023 102.086 104.336C100.915 104.476 99.7486 104.612 98.5782 104.759C98.2982 104.795 98.1797 104.709 98.1833 104.418C98.1905 103.122 98.1941 101.83 98.1797 100.534C98.1761 100.125 98.4849 100.15 98.7254 100.103C100.775 99.6902 102.825 99.2881 104.875 98.886C108.178 98.2362 111.477 97.5864 114.78 96.933C116.374 96.6171 117.965 96.294 119.562 95.9924C119.792 95.9494 120.061 95.9637 120.28 96.0463C121.799 96.6243 123.31 97.2202 124.818 97.8306C124.987 97.8988 125.216 98.0962 125.22 98.2398C125.249 99.9487 125.238 101.658 125.238 103.478Z" fill="white"/>
<path d="M32.6142 103.291C31.4761 103.026 30.3776 102.839 29.3221 102.509C27.9004 102.064 26.4895 102.143 25.0463 102.329C22.5297 102.652 20.0059 102.907 17.4857 103.205C14.8649 103.514 12.2478 103.837 9.62703 104.153C8.44231 104.297 7.254 104.426 6.06928 104.577C5.74977 104.616 5.61334 104.534 5.61693 104.192C5.6313 102.947 5.6313 101.701 5.61335 100.455C5.60976 100.111 5.75336 100.006 6.06569 99.9454C8.46026 99.4823 10.8512 99.0012 13.2422 98.5309C17.7657 97.637 22.2892 96.7359 26.8162 95.8635C27.1681 95.7953 27.5809 95.842 27.9184 95.964C29.3795 96.5061 30.8263 97.0913 32.2695 97.6873C32.4383 97.7555 32.6501 97.9924 32.6537 98.154C32.6824 99.7659 32.6716 101.374 32.668 102.986C32.6752 103.062 32.6465 103.141 32.6142 103.291Z" fill="white"/>
<path d="M32.6473 95.4083C31.5415 94.8913 30.5255 94.4138 29.5096 93.94C29.3301 93.8574 29.1326 93.7963 28.971 93.6851C27.9012 92.9527 26.8062 93.0388 25.5856 93.3332C19.2061 94.8841 12.8086 96.3596 6.41829 97.8603C6.1957 97.9141 5.96953 97.9572 5.67514 98.0183C5.65719 97.8064 5.63206 97.6377 5.63206 97.4654C5.62847 96.3022 5.65001 95.1426 5.6177 93.9794C5.60693 93.563 5.7649 93.405 6.14185 93.2902C12.5968 91.2689 19.0517 89.237 25.503 87.205C25.9769 87.0542 26.458 86.9214 26.9247 86.7526C27.2478 86.6378 27.5099 86.6629 27.8043 86.8532C29.2977 87.8153 30.7984 88.7595 32.3062 89.6965C32.5755 89.8616 32.6903 90.0447 32.6868 90.375C32.6688 91.8685 32.6832 93.3619 32.6832 94.8554C32.6796 95.0026 32.6652 95.1498 32.6473 95.4083Z" fill="white"/>
<path d="M125.184 95.5412C124.973 95.455 124.79 95.3904 124.614 95.3078C123.246 94.6688 121.871 94.0405 120.517 93.3764C120.115 93.1789 119.749 93.161 119.325 93.2615C114.662 94.3672 109.995 95.4586 105.328 96.5572C103.149 97.0706 100.969 97.5839 98.7903 98.0973C98.618 98.1368 98.4421 98.1548 98.2159 98.1942C98.2051 97.9573 98.1872 97.7814 98.1872 97.6019C98.1836 96.489 98.2087 95.376 98.1728 94.2667C98.1585 93.8036 98.3021 93.6026 98.7508 93.4625C102.948 92.1629 107.137 90.8346 111.33 89.5135C114.019 88.6662 116.712 87.8261 119.394 86.9609C119.796 86.8317 120.105 86.8676 120.456 87.0974C121.921 88.0415 123.407 88.9534 124.869 89.8976C125.034 90.0053 125.213 90.2423 125.217 90.4253C125.242 92.0337 125.231 93.6456 125.228 95.2576C125.242 95.3294 125.213 95.4083 125.184 95.5412Z" fill="white"/>
<path d="M111.722 111.373C107.439 111.373 103.152 111.373 98.8692 111.373C98.1907 111.373 98.1871 111.37 98.1871 110.687C98.1871 109.542 98.1979 108.397 98.18 107.252C98.1728 106.886 98.3092 106.774 98.6682 106.746C101.415 106.537 104.157 106.304 106.904 106.085C110.031 105.837 113.154 105.597 116.281 105.349C117.308 105.266 118.331 105.141 119.358 105.105C119.979 105.083 120.611 105.17 121.232 105.259C122.431 105.432 123.623 105.654 124.818 105.827C125.163 105.877 125.249 106.028 125.245 106.347C125.235 107.841 125.224 109.338 125.249 110.831C125.256 111.291 125.087 111.384 124.671 111.38C120.356 111.366 116.037 111.37 111.722 111.373Z" fill="white"/>
<path d="M19.1664 111.182C14.8978 111.182 10.6328 111.182 6.36422 111.182C5.62467 111.182 5.62467 111.182 5.62467 110.417C5.62467 109.322 5.63903 108.224 5.61749 107.129C5.61031 106.73 5.72878 106.583 6.14164 106.551C10.9236 106.195 15.702 105.829 20.4839 105.449C22.6667 105.276 24.8423 105.039 27.025 104.903C27.7071 104.86 28.4036 105.043 29.0893 105.147C30.1555 105.305 31.2182 105.492 32.2845 105.65C32.5645 105.693 32.683 105.804 32.6794 106.098C32.6686 107.66 32.665 109.218 32.6794 110.78C32.683 111.236 32.3922 111.178 32.1121 111.178C28.8595 111.178 25.6034 111.178 22.3508 111.178C21.2917 111.182 20.229 111.182 19.1664 111.182Z" fill="white"/>
<path d="M192.68 87.1316V88.704C190.278 88.704 188.559 89.2533 187.525 90.3483C186.494 91.4432 185.978 93.3352 185.978 96.0206V110.607C184.714 110.948 182.348 111.257 178.884 111.533C175.416 111.81 172.727 111.95 170.817 111.95C160.804 111.95 152.999 109.483 147.406 104.554C141.816 99.625 139.02 93.1234 139.02 85.0493C139.02 79.4093 140.244 74.3258 142.689 69.7952C145.133 65.2645 148.551 61.678 152.938 59.025C157.325 56.3755 161.982 55.0508 166.907 55.0508C169.865 55.0508 173.078 55.5749 176.557 56.6232C178.776 57.2694 180.467 57.5925 181.637 57.5925C183.174 57.5925 184.193 56.993 184.685 55.7903H186.441V71.7841H184.868C184.254 67.3467 182.244 63.7962 178.844 61.1323C175.444 58.4649 171.466 57.133 166.911 57.133C161.185 57.133 156.492 59.4199 152.83 63.9972C149.169 68.5709 147.338 74.4802 147.338 81.7213C147.338 89.6697 149.456 96.2647 153.692 101.503C157.928 106.74 163.252 109.361 169.661 109.361C175.731 109.361 178.765 107.43 178.765 103.57V97.6863C178.765 94.3512 178.327 92.0176 177.448 90.6929C176.572 89.3646 175.021 88.7004 172.802 88.7004H170.723V87.128H192.68V87.1316Z" fill="white"/>
<path d="M217.555 55.2731V56.9066C215.243 56.9066 213.642 57.5636 212.748 58.8775C211.854 60.1951 211.409 62.5358 211.409 65.9033V101.075C211.409 104.443 211.854 106.776 212.748 108.076C213.642 109.375 215.243 110.025 217.555 110.025V111.659H198.05V110.025C200.423 110.025 202.042 109.383 202.904 108.101C203.765 106.819 204.196 104.475 204.196 101.075V65.9033C204.196 62.4389 203.773 60.073 202.925 58.8057C202.078 57.5384 199.96 56.903 197.555 56.903V55.2695H217.555V55.2731Z" fill="white"/>
<path d="M249.505 55.6076H250.984V68.3164H249.412C249.042 64.8053 247.768 62.0625 245.589 60.088C243.413 58.117 240.67 57.1297 237.367 57.1297C234.434 57.1297 232.072 57.8693 230.281 59.3484C228.489 60.8275 227.595 62.7984 227.595 65.2648C227.595 67.5445 228.335 69.6267 229.814 71.5043C231.293 73.3819 234.499 75.8016 239.428 78.7599C245.158 82.1812 249.01 85.1681 250.984 87.7278C252.955 90.2875 253.943 93.2134 253.943 96.5091C253.943 100.76 252.435 104.396 249.412 107.416C246.393 110.435 242.756 111.946 238.505 111.946C236.039 111.946 232.898 111.268 229.078 109.914C227.505 109.362 226.504 109.082 226.073 109.082C225.179 109.082 224.486 109.774 223.994 111.16H222.422V96.5091H223.994C224.023 100.548 225.344 103.783 227.947 106.217C230.55 108.651 233.594 109.868 237.077 109.868C240.376 109.868 243.014 108.988 245.003 107.233C246.989 105.473 247.983 103.129 247.983 100.2C247.983 98.0098 247.168 95.9132 245.538 93.9099C243.908 91.9067 240.501 89.3218 235.317 86.159C231.088 83.549 228.27 81.4919 226.852 79.9805C225.438 78.4691 224.393 76.8104 223.714 75.0082C223.036 73.206 222.698 71.2243 222.698 69.0667C222.698 64.9058 224.063 61.5276 226.795 58.9391C229.527 56.3507 233.084 55.0547 237.468 55.0547C239.877 55.0547 242.501 55.5322 245.337 56.4871C246.666 56.9179 247.592 57.1333 248.116 57.1333C248.547 57.1333 248.841 57.04 248.996 56.8569C249.15 56.6702 249.322 56.2538 249.505 55.6076Z" fill="white"/>
<path d="M307.117 96.4801C305.735 99.1654 304.105 101.388 302.228 103.179C301.126 104.235 299.923 105.139 298.623 105.879C295.593 107.624 292.053 108.496 288.036 108.496C281.829 108.496 276.792 106.012 272.954 101.021C269.12 96.0313 267.192 89.4471 267.192 81.2654C267.192 73.8088 269.02 67.8457 272.66 63.3689C276.297 58.8921 281.237 56.6519 287.462 56.6519C292.204 56.6519 296.024 57.8366 298.889 60.1917C298.921 60.1917 298.939 60.224 298.972 60.242C300.074 61.1646 301.079 62.2847 301.951 63.6023C303.351 65.7096 304.436 68.3268 305.243 71.4394H306.841V55.1225H305.344C304.784 56.257 303.811 56.835 302.396 56.835C301.506 56.835 299.862 56.555 297.507 55.9949C293.31 55.04 289.835 54.5625 287.103 54.5625C278.935 54.5625 272.186 57.4094 266.837 63.1068C261.488 68.8186 258.82 76.0131 258.82 84.7226C258.82 90.0395 259.955 94.7317 262.245 98.8315C264.536 102.913 267.778 106.127 271.992 108.446C276.207 110.783 280.784 111.953 285.724 111.953C290.944 111.953 295.604 110.686 299.686 108.151C300.063 107.922 300.426 107.674 300.774 107.426C301.894 106.651 302.913 105.814 303.818 104.892C305.843 102.885 307.423 100.53 308.561 97.8299L307.117 96.4801Z" fill="white"/>
<path d="M295.933 83.0927C295.933 76.0131 297.448 70.2008 300.445 65.6235C299.591 64.1587 298.586 62.974 297.466 62.0334C297.318 61.9006 297.168 61.7857 297.006 61.7031C296.643 62.0155 296.281 62.3458 295.936 62.6904C290.339 68.1078 287.539 74.8751 287.539 82.9886C287.539 91.1021 290.354 97.9556 295.986 103.552C296.216 103.782 296.464 104.012 296.712 104.245C298.209 103.506 299.577 102.515 300.812 101.298C297.548 96.5447 295.933 90.4703 295.933 83.0927ZM295.933 83.0927C295.933 76.0131 297.448 70.2008 300.445 65.6235C299.591 64.1587 298.586 62.974 297.466 62.0334C297.318 61.9006 297.168 61.7857 297.006 61.7031C296.643 62.0155 296.281 62.3458 295.936 62.6904C290.339 68.1078 287.539 74.8751 287.539 82.9886C287.539 91.1021 290.354 97.9556 295.986 103.552C296.216 103.782 296.464 104.012 296.712 104.245C298.209 103.506 299.577 102.515 300.812 101.298C297.548 96.5447 295.933 90.4703 295.933 83.0927ZM337.455 62.8125C331.84 57.3125 324.976 54.5625 316.877 54.5625C314.159 54.5625 311.592 54.8425 309.155 55.4169V58.1346C311.524 57.1294 314.159 56.6519 317.057 56.6519C323.081 56.6519 328.006 59.1039 331.79 63.9936C335.578 68.8833 337.47 75.3705 337.47 83.4553C337.47 90.9801 335.542 97.2699 331.675 102.307C327.805 107.329 322.75 109.846 316.547 109.846C312.35 109.846 308.695 108.711 305.597 106.407C304.789 107.247 303.903 108.019 302.948 108.729C307.029 110.887 311.592 111.957 316.629 111.957C324.811 111.957 331.726 109.157 337.391 103.56C343.038 97.9627 345.87 91.1129 345.87 82.9958C345.867 75.0438 343.07 68.3088 337.455 62.8125ZM298.88 60.1953C298.912 60.1953 298.93 60.2276 298.963 60.2456C300.065 61.1682 301.07 62.2883 301.942 63.6059C303.393 61.8288 305.023 60.3964 306.832 59.3265V56.0667C303.967 57.0002 301.318 58.368 298.88 60.1953ZM300.758 107.426C300.018 106.967 299.307 106.439 298.618 105.879C299.918 105.139 301.12 104.231 302.222 103.179C302.718 103.789 303.242 104.364 303.802 104.892L300.758 107.426Z" fill="white"/>
</svg>
