<svg width="311" height="64" viewBox="0 0 311 64" fill="none" xmlns="http://www.w3.org/2000/svg">
<path d="M49.9729 0.875V63.0426H40.72L9.90133 14.9907H9.64633V63.0426H0.648438V0.875H10.4842L40.72 48.4149H40.975V9.0665H27.7514V0.875H49.9729Z" fill="white"/>
<path d="M232.402 0.875V44.758C232.409 46.2137 232.312 47.6681 232.111 49.1098C231.948 50.5727 231.605 52.0098 231.091 53.3884C229.914 56.4506 227.746 59.0266 224.935 60.7022C222.672 61.999 220.163 62.8028 217.571 63.0611C214.979 63.3195 212.361 63.0266 209.889 62.2015C208.068 61.5538 206.368 60.6018 204.862 59.3857C201.704 57.0403 199.555 53.575 198.852 49.6949H208.032C208.579 51.3286 209.624 52.7485 211.019 53.754C212.465 54.6343 214.138 55.0668 215.827 54.9974C216.994 55.0619 218.158 54.8272 219.21 54.3154C220.261 53.8036 221.166 53.0315 221.838 52.0719C222.478 51.1211 222.924 50.0521 223.15 48.9269C223.442 47.7301 223.589 46.5022 223.587 45.27V8.99336H210.691V0.875H232.548H232.402Z" fill="white"/>
<path d="M237.84 1.05859H271.026V9.43294H246.838V27.7175H261.045V35.9456H246.838V54.7787H271.026V63.0434H237.84V1.05859Z" fill="white"/>
<path d="M292.082 63.0429C289.583 63.0545 287.107 62.5698 284.796 61.6167C282.617 60.7266 280.645 59.3945 279.004 57.7038C277.404 55.9679 276.166 53.929 275.361 51.7065C274.408 49.3338 273.902 46.8044 273.867 44.2464H282.537C282.458 45.6506 282.605 47.0585 282.974 48.4153C283.32 49.7488 283.94 50.9947 284.796 52.0722C285.698 53.0542 286.788 53.8451 287.999 54.3982C289.211 54.9514 290.521 55.2557 291.851 55.2931C293.182 55.3306 294.507 55.1006 295.747 54.6165C296.988 54.1324 298.12 53.4041 299.076 52.4744C300.847 50.4636 301.774 47.8425 301.662 45.1606C301.727 43.7661 301.465 42.3758 300.897 41.1014C300.397 40.0663 299.661 39.1642 298.748 38.4685C297.817 37.7286 296.802 37.1026 295.724 36.6034L292.082 35.1407C289.787 34.2264 287.601 33.3488 285.597 32.4711C283.7 31.6427 281.923 30.5602 280.315 29.253C278.758 27.9357 277.514 26.2867 276.672 24.4259C275.722 22.1092 275.275 19.6159 275.361 17.1121C275.334 14.8971 275.781 12.7023 276.672 10.6759C277.547 8.73924 278.784 6.9889 280.315 5.51962C281.83 4.06778 283.612 2.92517 285.561 2.15526C287.633 1.31418 289.846 0.879697 292.082 0.875336C294.439 0.861788 296.78 1.2577 299.003 2.04555C301.032 2.7636 302.883 3.91097 304.431 5.40991C305.994 6.8941 307.234 8.68703 308.074 10.6759C308.94 12.8371 309.373 15.1484 309.349 17.4777H300.533C300.593 16.317 300.421 15.156 300.027 14.0631C299.633 12.9703 299.024 11.9678 298.238 11.1147C297.423 10.3317 296.455 9.72621 295.395 9.33607C294.336 8.94593 293.208 8.77957 292.082 8.84742C291.015 8.84335 289.959 9.06775 288.985 9.50566C288.032 9.93631 287.176 10.5586 286.472 11.3341C285.753 12.1055 285.174 12.9964 284.759 13.9671C284.364 14.9803 284.166 16.0604 284.177 17.1486C284.122 18.052 284.266 18.9565 284.6 19.7973C284.934 20.6381 285.448 21.3944 286.107 22.0123C287.55 23.2685 289.203 24.259 290.989 24.9379C292.907 25.6936 295.02 26.4616 297.327 27.2417C299.59 27.9978 301.736 29.0687 303.702 30.4232C305.709 31.8573 307.375 33.7177 308.584 35.872C309.915 38.7124 310.504 41.8459 310.296 44.9778C310.308 47.479 309.851 49.9602 308.948 52.2916C308.153 54.4322 306.911 56.3774 305.305 57.9964C303.627 59.5967 301.645 60.8406 299.477 61.6533C297.118 62.5719 294.611 63.0431 292.082 63.0429Z" fill="white"/>
<path d="M86.6196 63.0439C82.4627 63.0767 78.3442 62.2423 74.5253 60.5937C70.8315 59.0104 67.4695 56.7397 64.6167 53.9016C61.7723 51.0723 59.4966 47.7202 57.9138 44.0279C56.2892 40.24 55.4584 36.1572 55.4731 32.0332C55.4513 27.8258 56.2817 23.6579 57.9138 19.7825C59.4958 16.0789 61.7712 12.7146 64.6167 9.87225C67.4761 7.06995 70.8382 4.83647 74.5253 3.28979C78.4053 1.67018 82.5669 0.839461 86.769 0.845738C90.9711 0.852016 95.1302 1.69517 99.0054 3.32636C102.7 4.89253 106.063 7.15139 108.914 9.98196C111.685 12.8405 113.886 16.2043 115.398 19.8922C116.985 23.7788 117.79 27.9425 117.766 32.1429C117.798 36.2841 116.954 40.3849 115.289 44.1742C113.701 47.851 111.411 51.1804 108.55 53.9747C105.692 56.7977 102.331 59.0555 98.6411 60.6303C94.8448 62.2656 90.7504 63.0877 86.6196 63.0439ZM86.6196 8.81174C82.2524 8.75021 77.9701 10.0258 74.3431 12.4687C70.7372 14.9451 67.9171 18.4107 66.2195 22.4521C65.5766 23.9207 65.0883 25.4527 64.7624 27.0232C64.3968 28.6802 64.2136 30.3726 64.216 32.0697C64.2177 33.6942 64.401 35.3134 64.7624 36.8969C65.1037 38.5345 65.5914 40.1378 66.2195 41.6874C67.8886 45.6942 70.6707 49.1345 74.2339 51.5977C77.8706 54.0197 82.1463 55.2933 86.5103 55.2546C91.1259 55.3658 95.6522 53.9668 99.4061 51.2686C103.128 48.5164 105.924 44.6888 107.42 40.2978C108.356 37.7193 108.837 34.9968 108.841 32.2526C108.867 29.1616 108.298 26.0946 107.165 23.22C106.108 20.5049 104.537 18.0212 102.539 15.9062C100.543 13.767 98.1397 12.051 95.4718 10.8596C92.7003 9.55559 89.6804 8.86943 86.6196 8.84831V8.81174Z" fill="white"/>
<path d="M87.3471 32.072C87.3144 36.1978 88.1459 40.2844 89.7878 44.0667C90.7546 46.2869 91.9772 48.3856 93.4307 50.3201C94.8539 49.8098 96.2019 49.1086 97.4379 48.2356C98.5023 47.44 99.4792 46.5328 100.352 45.5295C99.5288 44.3129 98.8098 43.0284 98.2029 41.6897C97.5912 40.1343 97.1039 38.5323 96.7457 36.8992C96.396 35.3144 96.2249 33.6952 96.2357 32.072C96.2213 30.3762 96.3924 28.6839 96.7457 27.0255C97.0878 25.4593 97.5756 23.9289 98.2029 22.4543C98.796 21.1042 99.5029 19.8074 100.316 18.578C100.243 18.4479 100.158 18.3253 100.061 18.2123C98.3802 16.4345 96.3772 14.9947 94.1593 13.9703L93.3579 13.6777C91.9033 15.572 90.6802 17.6346 89.715 19.8214C88.091 23.6968 87.2847 27.8681 87.3471 32.072Z" fill="white"/>
<path d="M147.231 19.8904C145.688 16.1923 143.449 12.8275 140.637 9.98018C137.786 7.14962 134.423 4.89076 130.729 3.32459C126.859 1.69838 122.706 0.857875 118.511 0.851598C114.315 0.845321 110.16 1.6734 106.285 3.28802C108.091 4.51124 109.775 5.90741 111.312 7.45691C111.932 8.07859 112.551 8.7734 113.134 9.46822C114.888 9.05053 116.686 8.84187 118.489 8.84654C121.575 8.81402 124.631 9.45016 127.45 10.7116C130.112 11.9131 132.513 13.6277 134.517 15.7581C136.489 17.9213 138.034 20.4404 139.071 23.1817C140.174 26.0636 140.73 29.1271 140.71 32.2143C140.7 34.9548 140.232 37.6743 139.326 40.2595C137.818 44.6439 135.024 48.4682 131.312 51.2302C127.558 53.9284 123.031 55.3275 118.416 55.2163C116.575 55.2088 114.742 54.988 112.952 54.558C112.334 55.2997 111.677 56.0078 110.984 56.679C109.528 58.1004 107.956 59.397 106.285 60.5554H106.467C110.283 62.1726 114.383 63.0059 118.525 63.0059C122.667 63.0059 126.767 62.1726 130.583 60.5554C134.268 58.9715 137.628 56.7148 140.492 53.8998C143.342 51.0959 145.63 47.7689 147.231 44.0992C148.881 40.3054 149.725 36.2077 149.708 32.068C149.706 27.883 148.863 23.7414 147.231 19.8904Z" fill="white"/>
<path d="M183.192 39.6018C184.191 39.3821 185.177 39.1012 186.142 38.7607C189.821 37.5751 192.968 35.1285 195.031 31.8491C196.971 28.5266 197.955 24.7288 197.872 20.8783C197.863 18.1616 197.394 15.4661 196.488 12.9063C195.615 10.3684 194.154 8.07489 192.226 6.2141C190.122 4.02172 187.425 2.49612 184.467 1.8258C181.521 1.19402 178.517 0.875334 175.505 0.875L154.559 0.875V63.0426H163.484V9.17621H174.959C176.719 9.16132 178.473 9.39522 180.168 9.87102C181.765 10.32 183.27 11.0506 184.612 12.0286C185.897 12.9876 186.934 14.2416 187.636 15.6855C188.43 17.2713 188.818 19.0309 188.765 20.8052C188.861 22.9472 188.329 25.0704 187.235 26.9123C186.236 28.4448 184.871 29.702 183.264 30.5692C181.556 31.5152 179.693 32.1468 177.764 32.4342C175.814 32.7715 173.841 32.9549 171.862 32.9827H165.633L186.142 63.0426H197.362L179.949 39.8943C181.037 39.9145 182.125 39.8164 183.192 39.6018Z" fill="white"/>
</svg>
